<svg xmlns="http://www.w3.org/2000/svg" width="4in" height="4in" viewBox="0 0 288 288"><g fill="#fff"><path d="M288.7 146.5a144.7 144.7 0 0 1-93.5 135.3c-4.4 1.7-8.9 3.1-13.5 4.4a6.2 6.2 0 0 1-3.9-1.4 7.1 7.1 0 0 1-2.1-5v-35c0-10.8-2.8-18.7-8.5-23.6a110.4 110.4 0 0 0 17-3.1 66.8 66.8 0 0 0 15.6-6.5 46.3 46.3 0 0 0 13.5-11 52 52 0 0 0 8.8-17.4 85.4 85.4 0 0 0 3.4-25.1 48.2 48.2 0 0 0-13.2-34.2A44.3 44.3 0 0 0 211 90a21.7 21.7 0 0 0-13.5 1.8 97.5 97.5 0 0 0-15.3 7.3l-6.3 4a119.1 119.1 0 0 0-63.8 0c-1.8-1.2-4.1-2.7-7.1-4.5a97.3 97.3 0 0 0-13.9-6.4A22.6 22.6 0 0 0 76.9 90a44.5 44.5 0 0 0-1.3 33.8 49.4 49.4 0 0 0-13.1 34.3 84.3 84.3 0 0 0 3.4 25 52 52 0 0 0 8.8 17.4A44.3 44.3 0 0 0 88 211.6a69.4 69.4 0 0 0 15.7 6.5 110.4 110.4 0 0 0 17 3.1 26.5 26.5 0 0 0-8.1 17 28.8 28.8 0 0 1-7.5 2.5 50.1 50.1 0 0 1-9.5.9 20.3 20.3 0 0 1-10.9-3.6 30.6 30.6 0 0 1-9.2-10.4 25.4 25.4 0 0 0-8-8.6 25.8 25.8 0 0 0-8.3-4.1l-3.3-.4a11.2 11.2 0 0 0-4.8.7c-1 .5-1.2 1.2-.8 1.9a7.2 7.2 0 0 0 1.4 2.4 20.9 20.9 0 0 0 2.2 2l1.2.8a19.8 19.8 0 0 1 7.2 6.3 45.8 45.8 0 0 1 5.3 8.4l1.6 3.9a21 21 0 0 0 7.4 10.2 24 24 0 0 0 11 5 76.1 76.1 0 0 0 11.6 1.2 48.5 48.5 0 0 0 9.3-.6l3.8-.7v14.9c.1 5.6.2 8.5.2 8.9a6.8 6.8 0 0 1-2.2 5 6.3 6.3 0 0 1-4 1.4c-4.6-1.3-9.1-2.7-13.6-4.4C18 253.5-19.6 169.9 8.7 95.2a144.7 144.7 0 0 1 280 51.3z"/><path d="M92.7 281.8c4.5 1.7 9 3.1 13.6 4.4a12.4 12.4 0 0 1-2.7-.3 110.4 110.4 0 0 1-10.9-4.1zm102.5 0a100.1 100.1 0 0 1-10.8 4.1 12.4 12.4 0 0 1-2.7.3c4.6-1.3 9.1-2.7 13.5-4.4z"/></g></svg>