<svg xmlns="http://www.w3.org/2000/svg"><symbol id="error" viewBox="0 0 256 256"><path d="M252.3 206.6L137.9 8.5a11.4 11.4 0 0 0-19.8-.1L3.7 206.7a11.6 11.6 0 0 0 9.9 17.3h228.8a11.6 11.6 0 0 0 9.9-17.4zM143 80l-1 25.9-4.2 45.1h-19.6l-4.2-45.1-1-25.9zm-15 118.7c-11.2 0-19.2-8.2-19.2-19.4s8-19 19.2-19 19.2 7.9 19.2 19-8 19.4-19.2 19.4z"/></symbol><symbol id="link" viewBox="0 0 158.2 158.2"><path fill="#fff" d="M0 35.5l.8-2.3a19.4 19.4 0 0 1 18.6-13.6c12.5-.2 25-.1 37.4-.1a2.6 2.6 0 0 1 1.7.7c6.2 6.1 12.3 12.3 18.5 18.5l.5.7H19.8v98.5h98.4V80.3l.6-.3 1.4 1.9c5.7 5.6 11.3 11.2 16.9 16.9a3.6 3.6 0 0 1 .9 2.2c.1 12.3.1 24.6.1 36.9s-8.8 19.9-20.3 19.9H20A19.8 19.8 0 0 1 .8 144.1c-.3-.7-.5-1.5-.8-2.2z"/><path fill="#fff" d="M149 0c6.4 2.2 8.9 6.8 8.9 13.4-.2 16.6-.1 33.2-.1 49.8a8.4 8.4 0 0 1-2 6.1 6.5 6.5 0 0 1-10 .4c-6.4-6.3-12.7-12.7-19-19l-1.3-1.3c-.4.5-.7 1.1-1.1 1.5L81.1 94.2a48.1 48.1 0 0 1-7.8 6.5c-7.1 4.7-15 2-18.4-5.8a10.5 10.5 0 0 1 .6-9 33.1 33.1 0 0 1 7.3-9.4L106.3 33a11.1 11.1 0 0 1 1.6-1.2L94.1 18.1c-2-2-3.9-4.1-6.1-6.1-4-3.6-2.4-9.3 2-11.4l1-.6z"/></symbol><symbol id="close" viewBox="0 0 60 60"><circle cx="30" cy="30" r="30" fill="#fff"/><path fill="none" stroke="#37323e" stroke-linecap="round" stroke-miterlimit="10" stroke-width="5" d="M18.8 18.8l22.4 22.4m0-22.4L18.8 41.2"/></symbol><symbol id="open" viewBox="0 0 60 60"><circle cx="30" cy="30" r="30" fill="#fff"/><path fill="none" stroke="#37323e" stroke-linecap="round" stroke-miterlimit="10" stroke-width="5" d="M45.8 30H14.2m31.6 10.6H14.2m31.6-21.2H14.2"/></symbol><symbol id="brand-identity" viewBox="0 0 216 216"><path fill="#de9e35" d="M108 95.6H41.2V15.8H108"/><path fill="#d3b840" d="M108 15.8h66.8v79.8H108"/><path fill="none" stroke="#fff" stroke-linecap="round" stroke-linejoin="round" stroke-width="10" d="M41.2 16.4h133.5v79.71H41.2z"/><path fill="#de9e35" d="M108 195.3H41.2v-79.7H108"/><path fill="#d3b840" stroke="#fff" stroke-miterlimit="10" d="M108 115.6h66.8v79.7H108"/><path fill="none" stroke="#fff" stroke-linecap="round" stroke-linejoin="round" stroke-width="10" d="M41.2 116.1h133.5v79.71H41.2z"/><path fill="none" stroke="#fff" stroke-linecap="round" stroke-linejoin="round" stroke-width="15" d="M74.6 146h66.8M91 168.2h34"/><path fill="#fff" stroke="#fff" stroke-linecap="round" stroke-linejoin="round" stroke-width="10" d="M90.6 49.8l-13.8 24h27.6l-13.8-24z"/><path fill="#fff" stroke="#fff" stroke-linecap="round" stroke-linejoin="round" stroke-width="10" d="M118.2 37.3l-21 36.5h42l-21-36.5z"/></symbol><symbol id="customers" viewBox="0 0 216 216"><path fill="#d3b840" d="M77.9 62.9v20a30.2 30.2 0 0 0 18.6 27.9h-2.1v13.5l-1.4.4a22.5 22.5 0 0 0-11.2-6.4l-15.9-3.8v-9.8h-1.5a21.5 21.5 0 0 0 13.4-20V70.3A21.6 21.6 0 0 0 40.9 55a21.2 21.2 0 0 0-6.4 15.3v14.4a21.2 21.2 0 0 0 6.4 15.3 20.1 20.1 0 0 0 7 4.7h-1.5v9.8l-15.8 3.8a23 23 0 0 0-17.7 22.4v11.6H48l1-.5a30.3 30.3 0 0 0-1.3 9.1v22.4H108V32.7a30.2 30.2 0 0 0-30.1 30.2zM76 68.2l.7 3.1h-6.8a50 50 0 0 0 6.1-3.1z"/><path fill="#de9e35" d="M203.1 152.4v-11.7a23.1 23.1 0 0 0-17.7-22.4l-15.8-3.8v-9.7h-1.5a21.5 21.5 0 0 0 7.1-4.7 21.7 21.7 0 0 0 6.3-15.3V70.4a21.5 21.5 0 0 0-21.7-21.7 21.6 21.6 0 0 0-21.6 20.9v15.2a21.7 21.7 0 0 0 13.3 20h-1.4v9.7l-15.9 3.8a23.3 23.3 0 0 0-11.2 6.4h.1l-1.6-.4v-13.5h-1.9a30.2 30.2 0 0 0 18.6-26.7V62.9A30.2 30.2 0 0 0 108 32.7v150.6h60.3v-22.4a31.6 31.6 0 0 0-1.4-9.2l1.1.7zm-63.8-81.1l.7-3.1a50 50 0 0 0 6.1 3.1z"/><path fill="#fff" d="M186.9 112.3l-11.1-2.7v-2a27.8 27.8 0 0 0 11.9-22.8V70.4a27.9 27.9 0 0 0-46-21.2 36.4 36.4 0 0 0-67.4 0 27.9 27.9 0 0 0-46 21.2v14.4a27.8 27.8 0 0 0 11.9 22.8v2l-11.1 2.7a29.1 29.1 0 0 0-22.5 28.4v11.7a6.3 6.3 0 0 0 6.3 6.2h28.6c0 .8-.1 1.5-.1 2.3v22.4a6.3 6.3 0 0 0 6.3 6.2h120.6a6.2 6.2 0 0 0 6.2-6.2v-22.4a17.7 17.7 0 0 0-.1-2.3h28.7a6.3 6.3 0 0 0 6.3-6.2v-11.7a29.1 29.1 0 0 0-22.5-28.4zm-27.1-57.4a15.4 15.4 0 0 1 15.4 14.4h-8.6a44.5 44.5 0 0 1-20.9-5.1 15.4 15.4 0 0 1 14.1-9.3zm-15.4 29v-6.5a57.8 57.8 0 0 0 22.2 4.4h8.7v3a15.5 15.5 0 0 1-30.9 0zm-5.9 18.9a30.9 30.9 0 0 0 5.4 4.8v2l-11.1 2.6a43.6 43.6 0 0 0-5.1 1.7v-.4a35.6 35.6 0 0 0 10.8-10.7zM84.1 62.9a23.9 23.9 0 0 1 47.6-3.8l-10.5-6.2a6.3 6.3 0 0 0-8 1.4 26.8 26.8 0 0 1-20.6 9.6h-8.5zm0 13.5h8.5a39.1 39.1 0 0 0 26.5-10.3l12.9 7.6v10.2a24 24 0 0 1-47.9-1zm31.2 42.2v4.5l-7.3 16.6-7.3-16.7v-4.4a38.4 38.4 0 0 0 14.6 0zm-43.2-11a27.9 27.9 0 0 0 5.4-4.9 36.4 36.4 0 0 0 10.7 10.7v.5a42 42 0 0 0-5-1.7l-11.1-2.6zM56.2 54.9a15.4 15.4 0 0 1 14.1 9.3 44.5 44.5 0 0 1-20.9 5.1h-8.6a15.4 15.4 0 0 1 15.4-14.4zM40.7 81.8h8.7a57.8 57.8 0 0 0 22.2-4.4v7.4a15.5 15.5 0 0 1-30.9 0zm3.7 64.3H19.1v-5.4A16.7 16.7 0 0 1 32 124.4l15.9-3.8a6.3 6.3 0 0 0 4.8-6.1v-2.1a19.8 19.8 0 0 0 3.5.3 19.5 19.5 0 0 0 3.4-.3v2.1a6.1 6.1 0 0 0 2.9 5.2 4.7 4.7 0 0 0 2.2.9l9.3 2.2-3.2.8a38 38 0 0 0-26.4 22.5zm117.6 31h-12.3v-12.9a6.3 6.3 0 0 0-12.5 0v12.9H78.7v-12.9a6.3 6.3 0 0 0-12.5 0v12.9H53.9v-16.2a25.9 25.9 0 0 1 19.8-25.2l17.1-4.1 11.5 26.1a6.3 6.3 0 0 0 5.7 3.7 6.7 6.7 0 0 0 3.4-1 6.7 6.7 0 0 0 2.3-2.7l11.4-26 17.1 4a25.8 25.8 0 0 1 19.8 25.2zm34.9-31h-25.3a38.4 38.4 0 0 0-26.5-22.5l-3.2-.7 9.4-2.3a4.7 4.7 0 0 0 2.2-.9 6.1 6.1 0 0 0 2.9-5.2v-2.1a19.5 19.5 0 0 0 3.4.3 19.8 19.8 0 0 0 3.5-.3v2.1a6.3 6.3 0 0 0 4.8 6.1l15.9 3.8a16.7 16.7 0 0 1 12.9 16.3z"/></symbol><symbol id="user-friendly" viewBox="0 0 216 216"><path fill="#de9e35" d="M108 211.7a103.7 103.7 0 0 1 0-207.4"/><path fill="#d3b840" d="M108 4.3a103.7 103.7 0 0 1 0 207.4m0-112.3c-26.7 0-49.1 22.4-49.1 49.1v8.6a7.9 7.9 0 0 0 8.1 8.1h82a7.9 7.9 0 0 0 8.1-8.1v-8.6c0-26.7-22.4-49.1-49.1-49.1z"/><path fill="#de9e35" d="M157.1 148.5v8.6a7.9 7.9 0 0 1-8.1 8.1h-41V99.4c26.7 0 49.1 22.4 49.1 49.1z"/><path fill="#d3b840" d="M108 50.8c-17.8 0-32.9 14.5-32.9 32.4s15.1 32.4 32.9 32.4 32.9-14.6 32.9-32.4-15.1-32.4-32.9-32.4z"/><path fill="#de9e35" d="M140.9 83.2c0 17.8-15.1 32.4-32.9 32.4V50.8c17.8 0 32.9 14.5 32.9 32.4z"/><path fill="none" stroke="#fff" stroke-linecap="round" stroke-linejoin="round" stroke-width="15" d="M157.1 148.5v8.6a7.9 7.9 0 0 1-8.1 8.1H67a7.9 7.9 0 0 1-8.1-8.1v-8.6a49.5 49.5 0 0 1 25.5-42.9 31.9 31.9 0 0 1-9.3-22.4c0-17.9 15.1-32.4 32.9-32.4s32.9 14.5 32.9 32.4a31.9 31.9 0 0 1-9.3 22.4c15.1 8.5 25.5 24.7 25.5 42.9z"/></symbol><symbol id="support" viewBox="0 0 216 216"><path fill="#d3b840" d="M113.7 44.9a35 35 0 0 0-34.6 34.6v6.1a5.6 5.6 0 0 0 5.7 5.7h57.8a5.6 5.6 0 0 0 5.7-5.7v-6.1a35 35 0 0 0-34.6-34.6z"/><path fill="#de9e35" d="M148.3 79.5v6.1a5.6 5.6 0 0 1-5.7 5.7h-28.9V44.9a35 35 0 0 1 34.6 34.6z"/><path fill="#d3b840" d="M113.7 10.7c-12.5 0-23.2 10.2-23.2 22.8s10.7 22.8 23.2 22.8 23.2-10.3 23.2-22.8-10.6-22.8-23.2-22.8z"/><path fill="#de9e35" d="M136.9 33.5c0 12.5-10.6 22.8-23.2 22.8V10.7c12.6 0 23.2 10.2 23.2 22.8z"/><path fill="#d3b840" d="M203.1 120.9L170 168.8a34.3 34.3 0 0 1-27.4 13.7H44.9l-5.9-60 5.9-5.3c8.7-7.7 14.4-12.9 25.5-15.5 13.4-3.1 26.7.6 35.4 8.6 2.3 2 3.7 3.8 6.5 3.8h30.3a11.4 11.4 0 1 1 0 22.8h-23.2a5.7 5.7 0 1 0 0 11.4h27a14.3 14.3 0 0 0 8.4-3.6l30.8-38.4a11.5 11.5 0 0 1 15.1-1.5 11.6 11.6 0 0 1 2.4 16.1z"/><path fill="#de9e35" d="M113.7 142.6v-28.5h28.9a11.4 11.4 0 1 1 0 22.8h-23.2a5.6 5.6 0 0 0-5.7 5.7z"/><path fill="#de9e35" d="M203.1 120.9L170 168.8a34.3 34.3 0 0 1-27.4 13.7h-28.9v-39.9a5.6 5.6 0 0 0 5.7 5.7h27a14.3 14.3 0 0 0 8.4-3.6l30.8-38.4a11.5 11.5 0 0 1 15.1-1.5 11.6 11.6 0 0 1 2.4 16.1z"/><path fill="none" stroke="#fff" stroke-linecap="round" stroke-linejoin="round" stroke-width="10" d="M148.3 79.5v6.1a5.6 5.6 0 0 1-5.7 5.7H84.8a5.6 5.6 0 0 1-5.7-5.7v-6.1a34.8 34.8 0 0 1 18-30.2 22.5 22.5 0 0 1-6.6-15.8c0-12.6 10.7-22.8 23.2-22.8s23.2 10.2 23.2 22.8a22.5 22.5 0 0 1-6.6 15.8 34.6 34.6 0 0 1 18 30.2zm54.8 41.4L170 168.8a34.3 34.3 0 0 1-27.4 13.7H44.9l-5.9-60 5.9-5.3c8.7-7.7 14.4-12.9 25.6-15.6 13.3-3 26.6.7 35.3 8.7 2.3 2 3.7 3.8 6.5 3.8h30.3a11.4 11.4 0 1 1 0 22.8h-23.2a5.7 5.7 0 1 0 0 11.4h27a14.1 14.1 0 0 0 8.4-3.6l30.8-38.4a11.5 11.5 0 0 1 15.1-1.5 11.6 11.6 0 0 1 2.4 16.1z"/><path fill="#d3b840" stroke="#fff" stroke-linecap="round" stroke-linejoin="round" stroke-width="10" d="M45.5 202.2l-34.2-68.5a5.6 5.6 0 0 1 2.5-7.6l12.6-6.3a17.2 17.2 0 0 1 23 7.6l24 48.1a17.1 17.1 0 0 1-7.6 22.9l-12.7 6.3a5.6 5.6 0 0 1-7.6-2.5z"/></symbol><symbol id="computer" viewBox="0 0 216 216"><path fill="#d3b840" stroke="#fff" stroke-linecap="round" stroke-linejoin="round" stroke-width="10" d="M11.3 24.4h97.1v105.16H11.3z"/><path fill="#de9e35" stroke="#fff" stroke-linecap="round" stroke-linejoin="round" stroke-width="10" d="M108.4 24.4h97.1v105.16h-97.1z"/><path fill="#de9e35" stroke="#fff" stroke-linecap="round" stroke-linejoin="round" stroke-width="7" d="M108.4 161.8h32.3v18.5h-32.3z"/><path fill="#d3b840" stroke="#fff" stroke-linecap="round" stroke-linejoin="round" stroke-width="7" d="M76.1 161.8h32.3v18.5H76.1z"/><path fill="#de9e35" stroke="#fff" stroke-linecap="round" stroke-linejoin="round" stroke-width="7" d="M108.4 180.3h50.4v11.38h-50.4z"/><path fill="#d3b840" stroke="#fff" stroke-linecap="round" stroke-linejoin="round" stroke-width="7" d="M58 180.3h50.4v11.38H58z"/><path fill="#d3b840" stroke="#fff" stroke-linecap="round" stroke-linejoin="round" stroke-width="10" d="M11.3 129.6h97.1v32.26H11.3z"/><path fill="#de9e35" stroke="#fff" stroke-linecap="round" stroke-linejoin="round" stroke-width="10" d="M108.4 129.6h97.1v32.26h-97.1z"/><path fill="#d3b840" d="M113.4 72.7h72.9v11.4h-72.9z"/><path fill="#de9e35" d="M30.4 72.7h72.9v11.38H30.4zm0-24.2h24.2v11.38H30.4z"/><path fill="#d3b840" d="M162.2 48.5h24.1v11.4h-24.1z"/><path fill="#de9e35" d="M30.4 96.9h24.2v11.38H30.4z"/><path fill="#d3b840" d="M162.2 96.9h24.1v11.4h-24.1zm-48.8-48.4H150v11.38h-36.6z"/><path fill="#de9e35" d="M66.7 48.5h36.6v11.38H66.7z"/><path fill="#d3b840" d="M113.4 96.9H150v11.38h-36.6z"/><path fill="#de9e35" d="M66.7 96.9h36.6v11.38H66.7z"/></symbol><symbol id="engagement" viewBox="0 0 216 216"><g fill="none" stroke="#fff" stroke-linecap="round" stroke-linejoin="round" stroke-width="15"><path d="M155.2 74.6a59.4 59.4 0 0 1 21.3 10.7A60.2 60.2 0 1 1 92 95.4a59.5 59.5 0 0 1 25.5-18.9"/><path d="M60.8 141.4a59.4 59.4 0 0 1-21.3-10.7 60.2 60.2 0 1 1 84.5-10.1 59.5 59.5 0 0 1-25.5 18.9"/></g></symbol><symbol id="behance" viewBox="0 0 288 288"><path fill="#fff" d="M121.2 120c0-11.1-7.5-11.1-7.5-11.1H82.8v23.7h29c5 0 9.4-1.6 9.4-12.6zm71.5 12.6a19 19 0 0 0-18.7 16.3h34.8s.2-16.3-16.1-16.3zm-79 16.3H82.8v28.4h29.3c4.4-.1 12.8-1.4 12.8-13.8 0-14.7-11.2-14.6-11.2-14.6z"/><path fill="#fff" d="M144 0a144 144 0 1 0 144 144A144.2 144.2 0 0 0 144 0zm25.5 96.3h43.7v13.1h-43.8zm-22.1 68.5c0 32.4-33.7 31.3-33.7 31.3H58.5v-106h55.2c16.8 0 30 9.3 30 28.2s-16.2 20.2-16.2 20.2c21.3 0 19.9 26.3 19.9 26.3zm81.8-1.8h-55a17.4 17.4 0 0 0 16 18.6h2.7c17.6 0 17-11.5 17-11.5h18.7c0 30.3-36.3 28.2-36.3 28.2-43.5 0-40.8-40.5-40.8-40.5s0-40.7 40.8-40.7c42.9 0 36.9 45.9 36.9 45.9z"/></symbol><symbol id="github" viewBox="0 0 288 288"><g fill="#fff"><path d="M288.7 146.5a144.7 144.7 0 0 1-93.5 135.3c-4.4 1.7-8.9 3.1-13.5 4.4a6.2 6.2 0 0 1-3.9-1.4 7.1 7.1 0 0 1-2.1-5v-35c0-10.8-2.8-18.7-8.5-23.6a110.4 110.4 0 0 0 17-3.1 66.8 66.8 0 0 0 15.6-6.5 46.3 46.3 0 0 0 13.5-11 52 52 0 0 0 8.8-17.4 85.4 85.4 0 0 0 3.4-25.1 48.2 48.2 0 0 0-13.2-34.2A44.3 44.3 0 0 0 211 90a21.7 21.7 0 0 0-13.5 1.8 97.5 97.5 0 0 0-15.3 7.3l-6.3 4a119.1 119.1 0 0 0-63.8 0c-1.8-1.2-4.1-2.7-7.1-4.5a97.3 97.3 0 0 0-13.9-6.4A22.6 22.6 0 0 0 76.9 90a44.5 44.5 0 0 0-1.3 33.8 49.4 49.4 0 0 0-13.1 34.3 84.3 84.3 0 0 0 3.4 25 52 52 0 0 0 8.8 17.4A44.3 44.3 0 0 0 88 211.6a69.4 69.4 0 0 0 15.7 6.5 110.4 110.4 0 0 0 17 3.1 26.5 26.5 0 0 0-8.1 17 28.8 28.8 0 0 1-7.5 2.5 50.1 50.1 0 0 1-9.5.9 20.3 20.3 0 0 1-10.9-3.6 30.6 30.6 0 0 1-9.2-10.4 25.4 25.4 0 0 0-8-8.6 25.8 25.8 0 0 0-8.3-4.1l-3.3-.4a11.2 11.2 0 0 0-4.8.7c-1 .5-1.2 1.2-.8 1.9a7.2 7.2 0 0 0 1.4 2.4 20.9 20.9 0 0 0 2.2 2l1.2.8a19.8 19.8 0 0 1 7.2 6.3 45.8 45.8 0 0 1 5.3 8.4l1.6 3.9a21 21 0 0 0 7.4 10.2 24 24 0 0 0 11 5 76.1 76.1 0 0 0 11.6 1.2 48.5 48.5 0 0 0 9.3-.6l3.8-.7v14.9c.1 5.6.2 8.5.2 8.9a6.8 6.8 0 0 1-2.2 5 6.3 6.3 0 0 1-4 1.4c-4.6-1.3-9.1-2.7-13.6-4.4C18 253.5-19.6 169.9 8.7 95.2a144.7 144.7 0 0 1 280 51.3z"/><path d="M92.7 281.8c4.5 1.7 9 3.1 13.6 4.4a12.4 12.4 0 0 1-2.7-.3 110.4 110.4 0 0 1-10.9-4.1zm102.5 0a100.1 100.1 0 0 1-10.8 4.1 12.4 12.4 0 0 1-2.7.3c4.6-1.3 9.1-2.7 13.5-4.4z"/></g></symbol><symbol id="email" viewBox="0 0 288 288"><path fill="#fff" d="M144 1.8A142.2 142.2 0 1 0 286.2 144 142.2 142.2 0 0 0 144 1.8zm96.2 213.7H50.7V84.6h189.5z"/><path fill="none" stroke="#fff" stroke-linecap="round" stroke-width="10" d="M84 126.2l61.5 37.5 56.7-37.5"/></symbol><symbol id="linkedin" viewBox="0 0 288 288"><path fill="#fff" d="M144 .9A143.1 143.1 0 1 0 287.1 144 143.1 143.1 0 0 0 144 .9zm-30 196H88.8v-75.8H114zm-12.6-86.1h-.2a13 13 0 0 1-13.9-12.1 3.4 3.4 0 0 1-.1-1 13.3 13.3 0 0 1 13.4-13.1h.9a13.1 13.1 0 0 1 14.1 12.1v.9a13 13 0 0 1-12.8 13.2zm103.4 86.1h-25.2v-40.5c0-10.2-3.6-17.1-12.7-17.1a13.9 13.9 0 0 0-13 9.1 18.6 18.6 0 0 0-.8 6.2v42.3h-25.2s.3-68.6 0-75.8H153v10.8a25 25 0 0 1 22.7-12.5c16.6 0 29.1 10.8 29.1 34.1z" style="isolation:isolate"/></symbol><symbol id="down-arrow" viewBox="0 0 288 288"><path fill="none" stroke="#fff" stroke-linecap="round" stroke-linejoin="round" stroke-width="30" d="M21 74.7l123 178.1L267 75.2"/></symbol><symbol id="zoom" viewBox="0 0 37.6 61.7"><circle cx="18.8" cy="18.8" r="16.3" fill="none" stroke="#d3b840" stroke-linecap="round" stroke-miterlimit="10" stroke-width="5"/><path fill="none" stroke="#d3b840" stroke-linecap="round" stroke-miterlimit="10" stroke-width="5" d="M18.8 10.5v16.4m8.3-8.2H10.7m8.1 16.4v24.1"/></symbol></svg>