<svg id="Layer_1" data-name="Layer 1" xmlns="http://www.w3.org/2000/svg" width="657.3" height="282.6" viewBox="0 0 657.3 282.6"><title>logodark_lightbg</title><path d="M227.4,267.4s-1.8-7.4-3.2-18l-23.8,16.9C213.3,271,227.4,267.4,227.4,267.4Z" fill="#37323e" stroke="#37323e" stroke-linecap="round" stroke-linejoin="round" stroke-width="11.02"/><path d="M220.9,157.3c-3.2-20.2-9.7-39.7-22.5-51.9C167.5,75.9,140,120.1,140,120.1s25.1.5,35.6,13.8,1.9,60.3,3.8,107.3a54,54,0,0,0,1.1,9.6l42.6-30.3C223.8,204.8,224.5,180.6,220.9,157.3Z" fill="#858789" stroke="#858789" stroke-linecap="round" stroke-linejoin="round" stroke-width="11.02"/><path d="M243.8,127.7c-14.2,19.5-10,58.8-10,58.8l7.9-4.6s-3.1-50.9,16.8-54.7,18.7,21.6,15.7,54.6l41.6-29.7C296.1,118.1,257.7,108.8,243.8,127.7Z" fill="#858789" stroke="#858789" stroke-linecap="round" stroke-linejoin="round" stroke-width="11.02"/><path d="M300.8,274.5c33.9,1.4,56-6.5,50.8-60.3,1.2,16.2-.3,43.9-24.2,43.2-25.7-.7-6.9-43.7-5-80.3l-51.1,36.4C270.7,243.5,275.5,273.5,300.8,274.5Z" fill="#37323e" stroke="#37323e" stroke-linecap="round" stroke-linejoin="round" stroke-width="11.02"/><path d="M373.9,8.6c8.5,7.6,6.7,51.7,3.8,101.5l45.8-32.7C422.3,4,373.9,8.6,373.9,8.6Z" fill="#858789" stroke="#858789" stroke-linecap="round" stroke-linejoin="round" stroke-width="11.02"/><path d="M421.9,108.2l-46.6,33.3c-1.8,32.6-3.1,64.2-1.4,86.3,5.1,65.6,46.8,40.9,44.3,5.1C415.9,201.3,418.3,173.7,421.9,108.2Z" fill="#37323e" stroke="#37323e" stroke-linecap="round" stroke-linejoin="round" stroke-width="11.02"/><path d="M439.1,118.7c-14.2,19.5-10,58.8-10,58.8l7.9-4.7s-3.4-53.5,16.8-54.6c10.4-.5,13.3,5.4,16.7,17.2,0,0,11.5,49-2.1,99-1.9,7.9-5.8,16-15.3,14.9-23.8-2.7-22-29.9-19-45.8-11.5,52.8,9.6,63.3,43.4,65.9,16.8,1.4,26-11.1,31.3-28.3,0,0,18.6-81.9-11.7-115.6C476.8,106.5,450.1,103.6,439.1,118.7Z" fill="#37323e" stroke="#37323e" stroke-linecap="round" stroke-linejoin="round" stroke-width="11.02"/><polyline points="546.4 88.2 637.5 175.4 637.6 175.6 546.5 262.8" fill="none" stroke="#37323e" stroke-linecap="round" stroke-linejoin="round" stroke-width="35"/><polyline points="111 88.2 19.9 175.4 19.8 175.6 110.9 262.8" fill="none" stroke="#37323e" stroke-linecap="round" stroke-linejoin="round" stroke-width="35"/></svg>