<svg xmlns="http://www.w3.org/2000/svg" width="16" height="16" viewBox="0 0 16 16"><path fill="#37323e" d="M5.6 11a1.8 1.8 0 0 0-.1-.5l-.5.4z"/><path fill="#37323e" d="M5.3 11.1h-.4l.6-.4h.2v.4a.1.1 0 0 1 0 .2zm0-.2z"/><path fill="#858789" d="M5.5 8.4a2.6 2.6 0 0 0-.6-1.3c-.7-.6-1.3.4-1.3.4s.6 0 .8.3 0 1.4.1 2.5v.3l1-.8a6.5 6.5 0 0 0 0-1.4z"/><path fill="#858789" d="M4.5 10.7h-.1v-.3a4.8 4.8 0 0 1 0-1.2A3.8 3.8 0 0 0 4.3 8a1.3 1.3 0 0 0-.7-.3h-.1c-.1-.1-.1-.1 0-.2s.3-.6.8-.6.5 0 .7.3a2 2 0 0 1 .6 1.2 4.3 4.3 0 0 1 0 1.6l-1 .7zm-.7-3.3a1.1 1.1 0 0 1 .7.3 2.1 2.1 0 0 1 .1 1.4v1.2l.8-.5a7.1 7.1 0 0 0-.1-1.4 2.1 2.1 0 0 0-.4-1.2L4.4 7a.9.9 0 0 0-.6.4zm2.2.3a2.7 2.7 0 0 0-.2 1.4l.2-.2s-.1-1.2.4-1.2.4.5.3 1.2l1-.7c-.5-.8-1.4-1-1.7-.5z"/><path fill="#858789" d="M5.8 9.2h-.2a2.4 2.4 0 0 1 .3-1.5.8.8 0 0 1 .7-.3 1.7 1.7 0 0 1 1.2.9v.2l-1 .5h-.1v-.1c0-.3.1-.9-.1-1.1h-.2c-.3 0-.3.7-.3 1.1v.2zm.9-1.6c.2.2.2.5.2 1.1l.6-.5a1.1 1.1 0 0 0-.8-.6z"/><path fill="#37323e" d="M7.3 11.1c.8.1 1.4-.1 1.2-1.4.1.4 0 1-.5 1s-.2-1-.1-1.9l-1.2.9c-.1.7.1 1.4.6 1.4z"/><path fill="#37323e" d="M7.5 11.3h-.2a.8.8 0 0 1-.7-.5c0-.2-.1-.6-.1-1h.1l1.2-.9h.1A.1.1 0 0 1 8 9c0 .3-.1.6-.1.8s-.2.8-.1.9h.5c.1-.1.1-.4.1-.8h.3a2.3 2.3 0 0 1-.3 1.1 1.4 1.4 0 0 1-.9.3zm-.1-.3c.4 0 .6 0 .8-.2h-.6a2 2 0 0 1 0-1.1c0-.2.1-.3.1-.5l-.9.7c0 1.2.4 1.2.6 1.2z"/><path fill="#858789" d="M9.1 4.9a7.3 7.3 0 0 1 .1 2.4l1-.8c0-1.7-1.1-1.6-1.1-1.6z"/><path fill="#858789" d="M9.2 7.4h-.1v-.2a8.6 8.6 0 0 0 .1-1.5C9.1 5.1 9 5 9 5s-.1-.1-.1-.2H9a1.1 1.1 0 0 1 .8.3c.4.3.5.8.6 1.5h-.1l-1.1.8zM9.3 5a6.1 6.1 0 0 1 0 2l.8-.6a2.1 2.1 0 0 0-.4-1.2z"/><path fill="#37323e" d="M10.2 7.2L9.1 8a13.2 13.2 0 0 0 0 2c.1 1.6 1.1 1 1 .1a15.7 15.7 0 0 1 .1-2.9z"/><path fill="#37323e" d="M9.6 11.1c-.2 0-.3-.1-.4-.3s-.2-.4-.3-.8A14.8 14.8 0 0 1 9 8l1.1-.8h.2v.7a20.3 20.3 0 0 0-.1 2.2c.1.5-.2 1-.6 1zm-.4-3V10c0 .7.2.9.4.9a.8.8 0 0 0 .4-.7 17.4 17.4 0 0 1 0-2.3v-.4zm1.4-.6a2.3 2.3 0 0 0-.2 1.3h.1s0-1.2.4-1.3.4.2.4.5a5.1 5.1 0 0 1 0 2.3c-.1.2-.2.4-.4.3s-.5-.7-.4-1c-.3 1.2.2 1.4 1 1.5s.6-.3.7-.7.5-1.9-.2-2.7-1.1-.6-1.4-.2z"/><path fill="#37323e" d="M11.6 11.1h-.1a1.2 1.2 0 0 1-1-.4 1.7 1.7 0 0 1-.2-1.3h.2c.1 0 .1.1.1.2a1.1 1.1 0 0 0 .1.8h.2c.1 0 .2 0 .3-.3a4.7 4.7 0 0 0 0-2.2c-.1-.3-.1-.3-.3-.3h-.1a3.7 3.7 0 0 0-.1 1.1c0 .1 0 .1-.1.1l-.2.2h-.2a2.4 2.4 0 0 1 .3-1.5.5.5 0 0 1 .5-.3 1.4 1.4 0 0 1 1 .4h.1c.7.9.3 2.8.3 2.9-.2.4-.5.6-.8.6zm-.9-.5c.1.2.4.2.8.3s.5-.3.6-.6.4-1.9-.2-2.6a1.1 1.1 0 0 0-.7-.3c.2.1.2.3.3.4a6.7 6.7 0 0 1-.1 2.4c-.1.4-.3.5-.5.5zm2.4.7l-.3-.2a.6.6 0 0 1 0-.6l1.9-1.7L12.8 7a.5.5 0 0 1 0-.5.5.5 0 0 1 .6-.1l2.1 2.1h.1a.3.3 0 0 1-.1.5l-2.1 2zm-10.2 0l-.3-.2-2.1-2a.3.3 0 0 1-.1-.5h.1l2.1-2.2a.5.5 0 0 1 .6.1.5.5 0 0 1 0 .5L1.3 8.8l1.9 1.7a.6.6 0 0 1 0 .6z"/></svg>