<svg xmlns="http://www.w3.org/2000/svg" width="732" height="308.7" viewBox="0 0 732 308.7"><path fill="#fff" stroke="#fff" stroke-linecap="round" stroke-linejoin="round" stroke-width="11.02" d="M264.5 277.6a169 169 0 0 1-3.3-18l-23.7 16.9c12.9 4.7 27 1.1 27 1.1zm-6.5-110c-3.2-20.3-9.7-39.8-22.5-52-30.9-29.5-58.5 14.7-58.5 14.7s25.2.5 35.7 13.8 1.9 60.3 3.8 107.4a52.8 52.8 0 0 0 1.1 9.5l42.5-30.3c.7-15.6 1.5-39.9-2.1-63.1zm22.9-29.7c-14.3 19.5-10 58.8-10 58.8l7.8-4.6s-3-50.9 16.9-54.7 18.6 21.6 15.6 54.6l41.6-29.6c-19.6-34.1-58.1-43.4-71.9-24.5zm57 146.8c33.9 1.4 56-6.5 50.8-60.3 1.2 16.2-.3 43.9-24.2 43.2-25.7-.7-7-43.7-5-80.3l-51.1 36.5c-.6 30 4.2 59.9 29.5 60.9zM411 18.9c8.4 7.5 6.7 51.6 3.8 101.4l45.8-32.7C459.4 14.3 411 18.9 411 18.9zm47.9 99.5l-46.5 33.3c-1.9 32.6-3.1 64.2-1.4 86.3 5.1 65.6 46.8 40.9 44.3 5.1-2.3-31.6.1-59.2 3.6-124.7zm17.3 10.5c-14.3 19.5-10 58.8-10 58.8l7.8-4.6s-3.4-53.6 16.9-54.7c10.4-.5 13.3 5.4 16.6 17.2 0 0 11.6 49-2.1 99-1.9 8-5.7 16-15.3 14.9-23.7-2.7-22-29.8-18.9-45.8-11.5 52.9 9.6 63.3 43.4 66 16.7 1.3 26-11.2 31.2-28.4 0 0 18.7-81.9-11.6-115.6-20.3-19-47-21.9-58-6.8z"/><path fill="none" stroke="#fff" stroke-linecap="round" stroke-linejoin="round" stroke-width="35" d="M583.5 98.5l91.1 87.1.1.2-91.1 87.2M148.1 98.5L57 185.6l-.2.2 91.1 87.2"/></svg>