<svg id="Layer_1" data-name="Layer 1" xmlns="http://www.w3.org/2000/svg" width="732" height="308.7" viewBox="0 0 732 308.7"><title>logo-light</title><path d="M264.5,277.6a169,169,0,0,1-3.3-18l-23.7,16.9C250.4,281.2,264.5,277.6,264.5,277.6Z" fill="#fff" stroke="#fff" stroke-linecap="round" stroke-linejoin="round" stroke-width="11.02"/><path d="M258,167.6c-3.2-20.3-9.7-39.8-22.5-52C204.6,86.1,177,130.3,177,130.3s25.2.5,35.7,13.8,1.9,60.3,3.8,107.4a52.8,52.8,0,0,0,1.1,9.5l42.5-30.3C260.8,215.1,261.6,190.8,258,167.6Z" fill="#fff" stroke="#fff" stroke-linecap="round" stroke-linejoin="round" stroke-width="11.02"/><path d="M280.9,137.9c-14.3,19.5-10,58.8-10,58.8l7.8-4.6s-3-50.9,16.9-54.7S314.2,159,311.2,192l41.6-29.6C333.2,128.3,294.7,119,280.9,137.9Z" fill="#fff" stroke="#fff" stroke-linecap="round" stroke-linejoin="round" stroke-width="11.02"/><path d="M337.9,284.7c33.9,1.4,56-6.5,50.8-60.3,1.2,16.2-.3,43.9-24.2,43.2-25.7-.7-7-43.7-5-80.3l-51.1,36.5C307.8,253.8,312.6,283.7,337.9,284.7Z" fill="#fff" stroke="#fff" stroke-linecap="round" stroke-linejoin="round" stroke-width="11.02"/><path d="M411,18.9c8.4,7.5,6.7,51.6,3.8,101.4l45.8-32.7C459.4,14.3,411,18.9,411,18.9Z" fill="#fff" stroke="#fff" stroke-linecap="round" stroke-linejoin="round" stroke-width="11.02"/><path d="M458.9,118.4l-46.5,33.3c-1.9,32.6-3.1,64.2-1.4,86.3,5.1,65.6,46.8,40.9,44.3,5.1C453,211.5,455.4,183.9,458.9,118.4Z" fill="#fff" stroke="#fff" stroke-linecap="round" stroke-linejoin="round" stroke-width="11.02"/><path d="M476.2,128.9c-14.3,19.5-10,58.8-10,58.8l7.8-4.6s-3.4-53.6,16.9-54.7c10.4-.5,13.3,5.4,16.6,17.2,0,0,11.6,49-2.1,99-1.9,8-5.7,16-15.3,14.9-23.7-2.7-22-29.8-18.9-45.8-11.5,52.9,9.6,63.3,43.4,66,16.7,1.3,26-11.2,31.2-28.4,0,0,18.7-81.9-11.6-115.6C513.9,116.7,487.2,113.8,476.2,128.9Z" fill="#fff" stroke="#fff" stroke-linecap="round" stroke-linejoin="round" stroke-width="11.02"/><polyline points="583.5 98.5 674.6 185.6 674.7 185.8 583.6 273" fill="none" stroke="#fff" stroke-linecap="round" stroke-linejoin="round" stroke-width="35"/><polyline points="148.1 98.5 57 185.6 56.8 185.8 147.9 273" fill="none" stroke="#fff" stroke-linecap="round" stroke-linejoin="round" stroke-width="35"/></svg>