<svg xmlns="http://www.w3.org/2000/svg" width="132" height="132" viewBox="0 0 132 132"><path fill="#37323e" d="M46.5 90.2a29.7 29.7 0 0 1-.7-3.4L41.3 90a10 10 0 0 0 5.2.2z"/><path fill="#37323e" d="M44.1 91.6a9.5 9.5 0 0 1-3.2-.6 1 1 0 0 1-.7-.8 1.2 1.2 0 0 1 .4-1l4.6-3.3a1.1 1.1 0 0 1 1.1-.1c.3.1.5.5.6.8.3 2 .6 3.4.6 3.4a1.1 1.1 0 0 1-.8 1.3 10.9 10.9 0 0 1-2.6.3zm-.2-2.2h1.3a1.9 1.9 0 0 1-.1-.8z"/><path fill="#858789" d="M45.2 69c-.6-3.9-1.9-7.7-4.3-10-6-5.7-11.3 2.8-11.3 2.8s4.9.1 6.9 2.7.3 11.6.7 20.7a9 9 0 0 0 .2 1.8l8.2-5.8a58.1 58.1 0 0 0-.4-12.2z"/><path fill="#858789" d="M37.4 88.1H37a1.1 1.1 0 0 1-.6-.7l-.3-2.1c-.1-3.4.1-6.8.2-9.9s.4-8.9-.7-10.2-4.8-2.2-6-2.2a1 1 0 0 1-.9-.6.9.9 0 0 1 0-1c.1-.2 3-4.7 7.1-5.3a7.2 7.2 0 0 1 5.8 2.2c2.3 2.3 3.9 5.8 4.7 10.7a75.2 75.2 0 0 1 .4 12.3 1.1 1.1 0 0 1-.5.9L38 87.9zM31.6 61c1.8.3 4.3 1 5.7 2.8s1.3 6 1.1 11.6c-.1 3-.3 6.4-.1 9.7l6.3-4.5a63.9 63.9 0 0 0-.4-11.4c-.7-4.4-2.1-7.5-4.1-9.4a5 5 0 0 0-4-1.7 7.9 7.9 0 0 0-4.5 2.9zm18 2.3c-2.7 3.8-1.9 11.3-1.9 11.3l1.5-.9s-.6-9.8 3.3-10.5 3.6 4.2 3 10.5l8-5.7c-3.8-6.6-11.2-8.3-13.9-4.7z"/><path fill="#858789" d="M47.7 75.7h-.5a1 1 0 0 1-.5-.8c-.1-.4-.9-8.1 2.1-12.1a6 6 0 0 1 5.4-2.3c3.8.2 7.9 3 10.2 7.1a1 1 0 0 1-.3 1.4l-8 5.7a1.1 1.1 0 0 1-1.1.1 1.1 1.1 0 0 1-.6-1.1c.3-2.8.8-8-.5-9.2a1.4 1.4 0 0 0-1.2-.1c-2 .3-2.6 5.8-2.4 9.4a1.2 1.2 0 0 1-.5 1l-1.6.9zM55 62.6l.3.3c1.5 1.3 1.7 4.1 1.4 8.6l5.4-3.8a12 12 0 0 0-7.1-5.1z"/><path fill="#37323e" d="M60.6 91.6c6.6.3 10.8-1.2 9.8-11.6.3 3.1 0 8.4-4.6 8.3s-1.4-8.4-1-15.5l-9.9 7.1c-.1 5.7.8 11.5 5.7 11.7z"/><path fill="#37323e" d="M61.9 92.7h-1.3c-1.9-.1-4.3-.9-5.7-4.5a21.9 21.9 0 0 1-1-8.4.9.9 0 0 1 .4-.8l9.9-7a.9.9 0 0 1 1.1-.1.9.9 0 0 1 .5 1 46.2 46.2 0 0 1-.9 6.5c-.5 3.1-1.1 6.4-.2 7.4s.4.4 1.1.5a3 3 0 0 0 2.3-.9c1-1.1 1.5-3.3 1.3-6.3a1.1 1.1 0 0 1 .9-1.2 1.2 1.2 0 0 1 1.2 1c.5 5-.2 8.3-2.1 10.4s-4.8 2.4-7.5 2.4zm-1.2-2.1c3.3.1 5.4-.3 6.7-1.4l-1.7.2a4 4 0 0 1-2.7-1.2c-1.5-1.9-.9-5.2-.1-9.2l.6-4-7.5 5.4c-.1 10 3.5 10.1 4.7 10.2z"/><path fill="#858789" d="M74.7 40.3c1.7 1.5 1.3 10 .7 19.6l8.9-6.3c-.2-14.1-9.6-13.3-9.6-13.3z"/><path fill="#858789" d="M75.4 61l-.5-.2a1.2 1.2 0 0 1-.5-1c.3-5.2.5-9.4.4-12.7 0-5-.7-5.9-.8-6a1.1 1.1 0 0 1-.3-1.1 1 1 0 0 1 .9-.7 9.2 9.2 0 0 1 6.5 2.3c2.7 2.5 4.2 6.5 4.2 12a.9.9 0 0 1-.4.9l-8.8 6.3zm1.1-19.4c.6 2.4.6 7.2.1 16.2l6.6-4.7c-.1-4.6-1.3-7.9-3.5-9.9a6.8 6.8 0 0 0-3.2-1.6z"/><path fill="#37323e" d="M84 59.5L75 66a137.2 137.2 0 0 0-.3 16.6c1 12.6 9 7.9 8.6 1s0-11.4.7-24.1z"/><path fill="#37323e" d="M79 91.6a4.2 4.2 0 0 1-3.5-2.2 14.1 14.1 0 0 1-1.8-6.7c-.4-4.4-.1-10.7.2-16.8a1 1 0 0 1 .5-.8l8.9-6.4a1.1 1.1 0 0 1 1.2-.1 1.2 1.2 0 0 1 .5 1c-.1 2.2-.2 4.1-.3 5.9-.5 8.7-.7 13-.4 18s-2.1 7.8-5.1 8zm-3-25.1a146.6 146.6 0 0 0-.2 16c.4 5.3 2 7 3.3 6.9s3.3-3.2 3.1-5.7c-.4-5.2-.1-9.8.4-18.3 0-1.2.1-2.4.2-3.7zm11.3-4.9c-2.8 3.7-1.9 11.3-1.9 11.3l1.5-.9s-.7-10.3 3.2-10.5c2-.1 2.6 1 3.2 3.3a42.2 42.2 0 0 1-.4 19.1c-.3 1.5-1.1 3.1-2.9 2.9-4.6-.6-4.3-5.8-3.7-8.9-2.2 10.2 1.9 12.2 8.4 12.7 3.2.3 5-2.1 6-5.4 0 0 3.6-15.8-2.2-22.3-3.9-3.7-9.1-4.2-11.2-1.3z"/><path fill="#37323e" d="M95.2 91.7h-.6c-3.1-.3-6.5-.9-8.4-3.4s-2-5.7-.9-10.6a1 1 0 0 1 1.2-.8 1 1 0 0 1 .9 1.2c-.6 2.9-.4 5.2.5 6.4a2.9 2.9 0 0 0 2.2 1.2c.4 0 1.3.1 1.8-2.1a42.5 42.5 0 0 0 .4-18.6c-.7-2.3-1-2.5-2.1-2.5a1 1 0 0 0-.8.5c-1.4 1.5-1.6 6.3-1.5 8.9a.9.9 0 0 1-.5 1l-1.5.9a1.2 1.2 0 0 1-1 .1 1.5 1.5 0 0 1-.6-.9c0-.3-.8-8 2.1-12.1a5.5 5.5 0 0 1 4.2-2.2c2.8-.3 6 1 8.6 3.4h.1c6.1 6.8 2.6 22.5 2.5 23.2h-.1c-1.2 4.3-3.4 6.4-6.5 6.4zm-7-4.3c1.2 1.2 3.2 1.9 6.6 2.2s4.2-2.6 4.9-4.7 3.3-15.4-2-21.3a11.6 11.6 0 0 0-5.5-2.8c1.3.8 1.8 2.3 2.2 3.7a45 45 0 0 1-.4 19.6c-.8 3.4-2.7 3.9-4.1 3.7zm19.8 5.3a3.1 3.1 0 0 1-2.4-1 3.4 3.4 0 0 1 .1-4.8l15-14.4-15.1-14.4a3.4 3.4 0 0 1-.1-4.7 3.4 3.4 0 0 1 4.8-.1l17.6 16.8.5.5a3.4 3.4 0 0 1-.5 4.3l-17.6 16.9a3.3 3.3 0 0 1-2.3.9zm-84 0a3.3 3.3 0 0 1-2.3-.9L4.1 75a3.4 3.4 0 0 1-.5-4.3h.1a1 1 0 0 1 .4-.5l17.6-16.9a3.4 3.4 0 0 1 4.8.1 3.4 3.4 0 0 1-.1 4.7L11.3 72.5l15 14.4a3.4 3.4 0 0 1 .1 4.8 3.1 3.1 0 0 1-2.4 1z"/></svg>