<svg xmlns="http://www.w3.org/2000/svg" width="32" height="32" viewBox="0 0 32 32"><path fill="#37323e" d="M11.2 21.9a5.1 5.1 0 0 0-.1-.9l-1.1.8a1.7 1.7 0 0 0 1.2.1z"/><path fill="#37323e" d="M10.7 22.2h-.8a.2.2 0 0 1-.2-.2v-.3l1.1-.8h.3c.1 0 .1.1.2.2a2.8 2.8 0 0 0 .1.8c0 .2-.1.3-.2.3zm-.1-.5h.3v-.2z"/><path fill="#858789" d="M10.9 16.7a4 4 0 0 0-1-2.4c-1.5-1.4-2.8.7-2.8.7a2.6 2.6 0 0 1 1.7.6c.5.7.1 2.9.2 5.1a.6.6 0 0 0 .1.4l1.9-1.4a10.4 10.4 0 0 0-.1-3z"/><path fill="#858789" d="M9.1 21.4H9c-.1-.1-.2-.1-.2-.2s-.1-.3-.1-.5a17.7 17.7 0 0 1 .1-2.4c0-1.1.1-2.2-.2-2.5s-1.2-.5-1.5-.6h-.2V15c.1-.1.8-1.2 1.8-1.3a1.6 1.6 0 0 1 1.4.5 5.2 5.2 0 0 1 1.1 2.6 15.8 15.8 0 0 1 .1 3c0 .1 0 .2-.1.2l-2 1.4zm-1.5-6.6a1.9 1.9 0 0 1 1.4.7c.4.4.3 1.4.3 2.8a19.1 19.1 0 0 0 0 2.4l1.5-1.1a27.2 27.2 0 0 0-.1-2.8 3.8 3.8 0 0 0-1-2.3 1 1 0 0 0-1-.4c-.4 0-.8.4-1.1.7zm4.4.5a5.5 5.5 0 0 0-.4 2.8l.3-.2s-.1-2.4.8-2.6.9 1 .7 2.6l2-1.4c-.9-1.6-2.7-2-3.4-1.2z"/><path fill="#858789" d="M11.6 18.4h-.2v-.2a5.1 5.1 0 0 1 .5-2.9 1.6 1.6 0 0 1 1.3-.6 3.5 3.5 0 0 1 2.5 1.8c.1.1.1.2-.1.3l-1.9 1.4h-.3c-.1 0-.1-.1-.1-.2s.2-2-.2-2.3h-.2c-.5.1-.7 1.4-.6 2.3a.3.3 0 0 1-.1.2l-.4.2zm1.7-3.2h.1c.4.4.4 1 .3 2.1l1.3-.9a2.7 2.7 0 0 0-1.7-1.2z"/><path fill="#37323e" d="M14.7 22.2c1.6.1 2.6-.3 2.4-2.8 0 .8 0 2.1-1.2 2s-.3-2-.2-3.7l-2.4 1.7c0 1.4.2 2.8 1.4 2.8z"/><path fill="#37323e" d="M15 22.5h-.3a1.4 1.4 0 0 1-1.4-1.1 4.1 4.1 0 0 1-.2-2c0-.1 0-.2.1-.2l2.4-1.8h.2l.2.3-.3 1.6a3.6 3.6 0 0 0 0 1.8h.2l.6-.2a1.9 1.9 0 0 0 .3-1.6q0-.1.3-.3c.1 0 .2.1.2.3a2.7 2.7 0 0 1-.5 2.5 2.2 2.2 0 0 1-1.8.7zm-.3-.5a2.2 2.2 0 0 0 1.6-.4h-.4a.6.6 0 0 1-.6-.3c-.4-.5-.2-1.3-.1-2.2a4.4 4.4 0 0 0 .2-1l-1.8 1.3c-.1 2.4.8 2.5 1.1 2.5z"/><path fill="#858789" d="M18.1 9.8c.4.3.3 2.4.2 4.7l2.1-1.5c0-3.5-2.3-3.2-2.3-3.2z"/><path fill="#858789" d="M18.3 14.8a.1.1 0 0 1-.1-.1l-.2-.2c.1-1.3.2-2.3.2-3.1S18 10 17.9 10s-.1-.2 0-.3l.2-.2a2.1 2.1 0 0 1 1.6.6 3.9 3.9 0 0 1 1 2.9v.2l-2.2 1.5c-.1.1-.1.1-.2.1zm.2-4.7a13.6 13.6 0 0 1 .1 3.9l1.6-1.1c-.1-1.2-.3-2-.9-2.4a.9.9 0 0 0-.8-.4z"/><path fill="#37323e" d="M20.4 14.4L18.2 16a28.3 28.3 0 0 0-.1 4c.3 3.1 2.2 2 2.1.3a45.4 45.4 0 0 1 .2-5.9z"/><path fill="#37323e" d="M19.2 22.2a1.1 1.1 0 0 1-.9-.5 3.4 3.4 0 0 1-.4-1.6 27.9 27.9 0 0 1 0-4.1v-.2l2.2-1.6h.3v.2a7.1 7.1 0 0 1-.1 1.5 31.7 31.7 0 0 0 0 4.4c0 .9-.6 1.9-1.3 1.9zm-.8-6.1c0 1.5-.1 2.9 0 3.9s.5 1.7.8 1.7.8-.8.7-1.4 0-2.4.1-4.5c0-.2.1-.5.1-.8zm2.8-1.2a4.8 4.8 0 0 0-.5 2.8l.4-.2s-.2-2.6.8-2.6.6.3.7.8a10.3 10.3 0 0 1 0 4.6c-.1.4-.3.8-.8.7s-1-1.4-.9-2.1c-.5 2.5.5 3 2.1 3.1s1.2-.5 1.4-1.3.9-3.9-.5-5.5-2.2-1-2.7-.3z"/><path fill="#37323e" d="M23.1 22.3a.1.1 0 0 1-.1-.1 2.6 2.6 0 0 1-2.1-.8 3.1 3.1 0 0 1-.2-2.6c0-.1.2-.2.3-.2l.2.3a2.5 2.5 0 0 0 .1 1.6.6.6 0 0 0 .6.3c.1 0 .3 0 .4-.5a10.8 10.8 0 0 0 .1-4.5c-.2-.6-.2-.7-.5-.6h-.2a4.4 4.4 0 0 0-.4 2.1.4.4 0 0 1-.1.3l-.4.2h-.2c-.1 0-.1-.1-.1-.2a4.4 4.4 0 0 1 .5-2.9 1.3 1.3 0 0 1 1-.6 3.2 3.2 0 0 1 2.1.9c1.5 1.6.6 5.5.6 5.6-.3 1.1-.8 1.7-1.6 1.7zm-1.7-1.1a2.2 2.2 0 0 0 1.6.5c.7.1 1-.6 1.2-1.1s.8-3.7-.5-5.2a2.8 2.8 0 0 0-1.3-.7 1.6 1.6 0 0 1 .5.9 12.2 12.2 0 0 1-.1 4.8c-.2.8-.6.9-1 .9zm4.8 1.3a.9.9 0 0 1-.6-.3.8.8 0 0 1 0-1.1l3.7-3.5-3.7-3.5a.8.8 0 0 1 1.2-1.2L31 17h.2a1.1 1.1 0 0 1-.1 1.1l-4.3 4.1zm-20.4 0l-.6-.2-4.3-4.1a1.1 1.1 0 0 1-.1-1.1H1L5.2 13a.9.9 0 0 1 1.2 0 .9.9 0 0 1 0 1.2l-3.7 3.4 3.7 3.5a.8.8 0 0 1 0 1.1.9.9 0 0 1-.6.3z"/></svg>