<svg xmlns="http://www.w3.org/2000/svg" width="64" height="64" viewBox="0 0 64 64"><path fill="#37323e" d="M22.9 43.4a10.7 10.7 0 0 1-.3-1.7l-2.2 1.6a5.2 5.2 0 0 0 2.5.1z"/><path fill="#37323e" d="M21.8 44l-1.6-.3a.4.4 0 0 1-.3-.4.5.5 0 0 1 .2-.4l2.2-1.6h.5c.1 0 .2.2.3.4s.2 1.5.2 1.5-.1.6-.3.6a5.5 5.5 0 0 1-1.2.2zm-.1-1h.6a.4.4 0 0 1-.1-.3z"/><path fill="#858789" d="M22.3 33.4a8.2 8.2 0 0 0-2.1-4.7C17.4 26.1 15 30 15 30a5.1 5.1 0 0 1 3.2 1.3c.9 1.2.1 5.4.3 9.7 0 .3.1.6.1.9l3.9-2.8a39.1 39.1 0 0 0-.2-5.7z"/><path fill="#858789" d="M18.6 42.4h-.2l-.3-.3c0-.3-.1-.7-.1-1s0-3.2.1-4.6.2-4.2-.3-4.8-2.3-1-2.9-1.1l-.4-.2a.4.4 0 0 1 0-.5c.1-.1 1.4-2.2 3.4-2.5a3.5 3.5 0 0 1 2.7 1.1 8.6 8.6 0 0 1 2.2 4.9 39.6 39.6 0 0 1 .2 5.8c0 .2-.1.3-.3.4l-3.8 2.8zm-2.7-12.8a4.7 4.7 0 0 1 2.7 1.4c.7.9.6 2.8.5 5.4s-.1 3-.1 4.6l3-2.2a32.5 32.5 0 0 0-.2-5.3 7.8 7.8 0 0 0-1.9-4.4 2.3 2.3 0 0 0-1.9-.8 3.8 3.8 0 0 0-2.1 1.3zm8.4 1.1c-1.3 1.8-.9 5.3-.9 5.3l.7-.4s-.2-4.6 1.6-4.9 1.6 1.9 1.4 4.9l3.7-2.7c-1.7-3-5.2-3.9-6.5-2.2z"/><path fill="#858789" d="M23.4 36.5h-.2l-.3-.4c0-.2-.4-3.8 1-5.7a3 3 0 0 1 2.6-1 6.4 6.4 0 0 1 4.8 3.3.5.5 0 0 1-.2.6L27.4 36a.7.7 0 0 1-.6.1.8.8 0 0 1-.2-.5c.1-1.3.3-3.8-.3-4.3a.4.4 0 0 0-.5-.1c-1 .2-1.3 2.7-1.2 4.4 0 .2 0 .4-.2.5l-.7.4zm3.4-6.1h.2c.7.7.8 2 .7 4.1l2.5-1.8a5.3 5.3 0 0 0-3.4-2.3z"/><path fill="#37323e" d="M29.5 44c3 .1 5-.6 4.6-5.5.1 1.5-.1 4-2.2 4s-.6-4-.5-7.3l-4.6 3.3c0 2.7.4 5.4 2.7 5.5z"/><path fill="#37323e" d="M30.1 44.5h-.6a2.8 2.8 0 0 1-2.7-2.1 10.5 10.5 0 0 1-.5-3.9.5.5 0 0 1 .2-.4l4.6-3.3h.6a.5.5 0 0 1 .2.4 16.5 16.5 0 0 1-.4 3.1c-.3 1.4-.5 3-.1 3.5l.5.2a1.8 1.8 0 0 0 1.1-.4 4.1 4.1 0 0 0 .6-3 .7.7 0 0 1 .4-.6.6.6 0 0 1 .6.5c.2 2.4-.1 3.9-1 4.9a4.8 4.8 0 0 1-3.5 1.1zm-.6-1a4.7 4.7 0 0 0 3.2-.6 2.2 2.2 0 0 1-.8 0 1.7 1.7 0 0 1-1.3-.5c-.7-.9-.4-2.5-.1-4.3a10.8 10.8 0 0 0 .3-1.9l-3.5 2.5c0 4.7 1.6 4.8 2.2 4.8z"/><path fill="#858789" d="M36.1 20c.7.7.6 4.7.3 9.1l4.2-2.9c-.1-6.6-4.5-6.2-4.5-6.2z"/><path fill="#858789" d="M36.4 29.6h-.2a.5.5 0 0 1-.3-.5 43.6 43.6 0 0 0 .2-6c0-2.3-.3-2.7-.3-2.7s-.3-.4-.2-.6.2-.3.4-.3a4.1 4.1 0 0 1 3.1 1.1c1.3 1.1 1.9 3 2 5.6a.8.8 0 0 1-.2.4l-4.2 2.9zm.5-9c.3 1.1.3 3.3.1 7.5l3.1-2.2a6.5 6.5 0 0 0-1.7-4.6 2.9 2.9 0 0 0-1.5-.7z"/><path fill="#37323e" d="M40.4 29l-4.2 3a51.9 51.9 0 0 0-.1 7.8c.4 5.9 4.2 3.7 4 .4s0-5.3.3-11.2z"/><path fill="#37323e" d="M38.1 44a2.2 2.2 0 0 1-1.7-1 8.3 8.3 0 0 1-.8-3.2 71.4 71.4 0 0 1 .1-7.9l.2-.3 4.2-3a.7.7 0 0 1 .6-.1.8.8 0 0 1 .2.5c0 1-.1 1.9-.1 2.8a50.1 50.1 0 0 0-.2 8.4c.1 1.9-1 3.7-2.4 3.8zm-1.4-11.8a48 48 0 0 0-.1 7.5c.2 2.5.9 3.3 1.5 3.3s1.6-1.6 1.5-2.7a52.4 52.4 0 0 1 .2-8.6 10.3 10.3 0 0 1 .1-1.7zm5.3-2.3c-1.3 1.8-.9 5.3-.9 5.3l.7-.4s-.3-4.8 1.5-4.9 1.2.5 1.5 1.5a21.3 21.3 0 0 1-.2 9c-.2.7-.5 1.4-1.4 1.3s-2-2.7-1.7-4.1c-1 4.8.9 5.7 3.9 5.9s2.4-1 2.9-2.5c0 0 1.6-7.4-1.1-10.5s-4.2-1.9-5.2-.6z"/><path fill="#37323e" d="M45.7 44h-.3c-1.5-.1-3.1-.4-4-1.6s-.9-2.6-.4-4.9c.1-.3.4-.5.6-.4a.4.4 0 0 1 .4.6 3.6 3.6 0 0 0 .3 3 1.1 1.1 0 0 0 1 .5c.2 0 .6.1.8-.9a18.2 18.2 0 0 0 .2-8.6c-.3-1.1-.5-1.2-1-1.2s-.2 0-.3.2-.8 2.9-.7 4.2-.1.3-.3.4l-.7.5h-.5a.5.5 0 0 1-.2-.4c0-.2-.4-3.8 1-5.7a2.3 2.3 0 0 1 1.9-1 4.9 4.9 0 0 1 4 1.6h.1c2.9 3.2 1.2 10.6 1.1 10.9-.5 1.9-1.6 2.8-3 2.8zm-3.3-2c.5.6 1.5.9 3.1 1s2-1.2 2.3-2.2 1.5-7.2-.9-9.9a5.3 5.3 0 0 0-2.6-1.3c.6.3.8 1.1 1 1.7a22.5 22.5 0 0 1-.2 9.2c-.4 1.6-1.3 1.8-1.9 1.7zm9.3 2.5a1.5 1.5 0 0 1-1.2-.5 1.5 1.5 0 0 1 .1-2.2l7-6.7-7-6.8a1.5 1.5 0 0 1-.1-2.2 1.6 1.6 0 0 1 2.3-.1l8.2 7.9.2.3a1.7 1.7 0 0 1-.2 2l-8.2 7.9a1.5 1.5 0 0 1-1.1.4zm-39.4 0a1.5 1.5 0 0 1-1.1-.4L3 36.2a1.7 1.7 0 0 1-.2-2l.2-.3 8.2-7.9a1.6 1.6 0 0 1 2.3.1 1.5 1.5 0 0 1-.1 2.2l-7 6.8 7 6.7a1.5 1.5 0 0 1 .1 2.2 1.5 1.5 0 0 1-1.2.5z"/></svg>