<svg xmlns="http://www.w3.org/2000/svg" width="69.4" height="57" viewBox="0 0 69.4 57"><circle cx="7.2" cy="10.1" r="7.2" fill="#543119"/><circle cx="7.5" cy="10.6" r="4" fill="#b27347"/><circle cx="62.3" cy="10.1" r="7.2" fill="#543119"/><circle cx="61.9" cy="10.6" r="4" fill="#b27347"/><path fill="#8d5226" d="M60.9 48.4C53.2 56.2 37.2 57 34.8 57s-18.4-.8-26.1-8.6-9-23.3 1.3-36.1A33.3 33.3 0 0 1 34.8 0a33.3 33.3 0 0 1 24.8 12.3c10.3 12.8 9 28.4 1.3 36.1z"/><ellipse cx="34.8" cy="43.4" fill="#b27347" rx="9.5" ry="8.4"/><path fill="#231f20" d="M38.2 40.9c-1.2 1.1-2.4 2-3.4 2s-2.2-.9-3.4-2a1.4 1.4 0 0 1 .8-2.5h5.1a1.5 1.5 0 0 1 .9 2.5z"/><circle cx="19.1" cy="28.9" r="2.9" fill="#231f20"/><circle cx="50.4" cy="28.9" r="2.9" fill="#231f20"/></svg>