<svg xmlns="http://www.w3.org/2000/svg" width="190.1" height="156" viewBox="0 0 190.1 156"><circle cx="19.6" cy="27.5" r="19.6" fill="#543119"/><circle cx="20.7" cy="29.1" r="10.8" fill="#b27347"/><circle cx="170.5" cy="27.5" r="19.6" fill="#543119"/><circle cx="169.4" cy="29.1" r="10.8" fill="#b27347"/><path fill="#8d5226" d="M166.7 132.5C145.5 153.7 102 156 95.2 156s-50.3-2.3-71.4-23.5-24.7-63.8 3.7-98.7S95.2 0 95.2 0s39.4-1.2 67.8 33.8 24.9 77.5 3.7 98.7z"/><ellipse cx="95.2" cy="118.8" fill="#b27347" rx="26.1" ry="22.9"/><path fill="#231f20" d="M104.5 111.9c-3.1 3.2-6.4 5.4-9.3 5.4s-6.1-2.2-9.3-5.4a3.9 3.9 0 0 1 2.3-6.8h14c2.3 0 5.5 3.6 2.3 6.8z"/><circle cx="52.2" cy="79" r="7.9" fill="#231f20"/><circle cx="137.8" cy="79" r="7.9" fill="#231f20"/></svg>