<svg xmlns="http://www.w3.org/2000/svg" width="4in" height="4in" viewBox="0 0 288 288"><path fill="#fff" d="M121.2 120c0-11.1-7.5-11.1-7.5-11.1H82.8v23.7h29c5 0 9.4-1.6 9.4-12.6zm71.5 12.6a19 19 0 0 0-18.7 16.3h34.8s.2-16.3-16.1-16.3zm-79 16.3H82.8v28.4h29.3c4.4-.1 12.8-1.4 12.8-13.8 0-14.7-11.2-14.6-11.2-14.6z"/><path fill="#fff" d="M144 0a144 144 0 1 0 144 144A144.2 144.2 0 0 0 144 0zm25.5 96.3h43.7v13.1h-43.8zm-22.1 68.5c0 32.4-33.7 31.3-33.7 31.3H58.5v-106h55.2c16.8 0 30 9.3 30 28.2s-16.2 20.2-16.2 20.2c21.3 0 19.9 26.3 19.9 26.3zm81.8-1.8h-55a17.4 17.4 0 0 0 16 18.6h2.7c17.6 0 17-11.5 17-11.5h18.7c0 30.3-36.3 28.2-36.3 28.2-43.5 0-40.8-40.5-40.8-40.5s0-40.7 40.8-40.7c42.9 0 36.9 45.9 36.9 45.9z"/></svg>