<svg xmlns="http://www.w3.org/2000/svg" width="64.5" height="66.5" viewBox="0 0 64.5 66.5"><path fill="#d51f26" d="M41.7 4.3c-4.3 2.4-4.1 6-4.1 6H27s-.1-3.6-4.4-6c0 0 5.6-.2 6.9 2.4A10.1 10.1 0 0 1 32.1 0a9.9 9.9 0 0 1 2.7 6.7c1.3-2.6 6.9-2.4 6.9-2.4z"/><path fill="#ddcbbf" d="M58.3 57.9c-7.7 7.7-23.6 8.6-26.1 8.6s-18.3-.9-26.1-8.6-9-23.3 1.4-36.1A32.6 32.6 0 0 1 32.2 9.5 32.9 32.9 0 0 1 57 21.8c10.4 12.8 9.1 28.3 1.3 36.1z"/><circle cx="16.5" cy="38.3" r="2.9" fill="#231f20"/><circle cx="47.8" cy="38.3" r="2.9" fill="#231f20"/><path fill="#e27f26" d="M34.8 50a26.6 26.6 0 0 1-2.7 5.5 28.6 28.6 0 0 1-2.6-5.5c-.8-2.4 2.6-2 2.6-2s3.4-.4 2.7 2z"/><path fill="#d51f26" d="M30.1 60a12.5 12.5 0 0 1-2.6 3.7c-1.6 1.7 2.6 4.6 3.4.6s-.8-4.3-.8-4.3zm3.8 0a12.5 12.5 0 0 0 2.6 3.7c1.7 1.7-2.6 4.6-3.3.6s.7-4.3.7-4.3z"/></svg>