<svg xmlns="http://www.w3.org/2000/svg" width="175.3" height="180.7" viewBox="0 0 175.3 180.7"><path fill="#d51f26" d="M113.3 11.7c-11.7 6.6-11 16.2-11 16.2H73.5s-.4-9.6-12-16.2c0 0 15.1-.5 18.8 6.6 0 0-.3-10.9 7.1-18.3 7.4 7.4 7.1 18.3 7.1 18.3 3.8-7.1 18.8-6.6 18.8-6.6z"/><path fill="#ddcbbf" d="M158.6 157.4c-21 21.1-64.3 23.3-71 23.3s-49.9-2.2-70.9-23.3S-7.9 94 20.3 59.3s67.3-33.5 67.3-33.5 39.2-1.3 67.4 33.5 24.7 77 3.6 98.1z"/><circle cx="44.9" cy="104.3" r="7.9" fill="#231f20"/><circle cx="130" cy="104.3" r="7.9" fill="#231f20"/><path fill="#e27f26" d="M94.7 136.1c-2 6.5-7.3 14.9-7.3 14.9s-5.3-8.4-7.3-14.9 7.3-5.5 7.3-5.5 9.3-1 7.3 5.5z"/><path fill="#d51f26" d="M81.9 163.2a37.1 37.1 0 0 1-7.1 10.1c-4.5 4.5 7.1 12.5 9.1 1.6s-2-11.7-2-11.7zm10.3 0a40 40 0 0 0 7.1 10.1c4.5 4.5-7.1 12.5-9.1 1.6s2-11.7 2-11.7z"/></svg>