<svg xmlns="http://www.w3.org/2000/svg" id="website" width="3in" height="3in" viewBox="0 0 216 216"><path fill="#bfbdc1" stroke="#fff" stroke-linecap="round" stroke-linejoin="round" stroke-width="6" d="M11.3 24.4h97.1v105.16H11.3z"/><path fill="#6e6b76" stroke="#fff" stroke-linecap="round" stroke-linejoin="round" stroke-width="6" d="M108.4 24.4h97.1v105.16h-97.1z"/><path fill="#6f6c77" stroke="#fff" stroke-linecap="round" stroke-linejoin="round" stroke-width="6" d="M108.4 161.8h32.3v18.5h-32.3z"/><path fill="#bfbdc1" stroke="#fff" stroke-linecap="round" stroke-linejoin="round" stroke-width="6" d="M76.1 161.8h32.3v18.5H76.1z"/><path fill="#6f6c77" stroke="#fff" stroke-linecap="round" stroke-linejoin="round" stroke-width="6" d="M108.4 180.3h50.4v11.38h-50.4z"/><path fill="#bfbdc1" stroke="#fff" stroke-linecap="round" stroke-linejoin="round" stroke-width="6" d="M58 180.3h50.4v11.38H58zm-46.7-50.7h97.1v32.26H11.3z"/><path fill="#6e6b76" stroke="#fff" stroke-linecap="round" stroke-linejoin="round" stroke-width="6" d="M108.4 129.6h97.1v32.26h-97.1z"/><path fill="#bfbdc1" d="M111.4 72.7h72.9v11.4h-72.9z"/><path fill="#6e6b76" d="M32.4 72.7h72.9v11.38H32.4zm0-24.2h24.2v11.38H32.4z"/><path fill="#bfbdc1" d="M160.2 48.5h24.1v11.4h-24.1z"/><path fill="#6e6b76" d="M32.4 96.9h24.2v11.38H32.4z"/><path fill="#bfbdc1" d="M160.2 96.9h24.1v11.4h-24.1zm-48.8-48.4H148v11.38h-36.6z"/><path fill="#6e6b76" d="M68.7 48.5h36.6v11.38H68.7z"/><path fill="#bfbdc1" d="M111.4 96.9H148v11.38h-36.6z"/><path fill="#6e6b76" d="M68.7 96.9h36.6v11.38H68.7z"/></svg>