<svg xmlns="http://www.w3.org/2000/svg" width="3in" height="3in" viewBox="0 0 216 216"><path fill="#d3b840" stroke="#fff" stroke-linecap="round" stroke-linejoin="round" stroke-width="10" d="M11.3 24.4h97.1v105.16H11.3z"/><path fill="#de9e35" stroke="#fff" stroke-linecap="round" stroke-linejoin="round" stroke-width="10" d="M108.4 24.4h97.1v105.16h-97.1z"/><path fill="#de9e35" stroke="#fff" stroke-linecap="round" stroke-linejoin="round" stroke-width="7" d="M108.4 161.8h32.3v18.5h-32.3z"/><path fill="#d3b840" stroke="#fff" stroke-linecap="round" stroke-linejoin="round" stroke-width="7" d="M76.1 161.8h32.3v18.5H76.1z"/><path fill="#de9e35" stroke="#fff" stroke-linecap="round" stroke-linejoin="round" stroke-width="7" d="M108.4 180.3h50.4v11.38h-50.4z"/><path fill="#d3b840" stroke="#fff" stroke-linecap="round" stroke-linejoin="round" stroke-width="7" d="M58 180.3h50.4v11.38H58z"/><path fill="#d3b840" stroke="#fff" stroke-linecap="round" stroke-linejoin="round" stroke-width="10" d="M11.3 129.6h97.1v32.26H11.3z"/><path fill="#de9e35" stroke="#fff" stroke-linecap="round" stroke-linejoin="round" stroke-width="10" d="M108.4 129.6h97.1v32.26h-97.1z"/><path fill="#d3b840" d="M113.4 72.7h72.9v11.4h-72.9z"/><path fill="#de9e35" d="M30.4 72.7h72.9v11.38H30.4zm0-24.2h24.2v11.38H30.4z"/><path fill="#d3b840" d="M162.2 48.5h24.1v11.4h-24.1z"/><path fill="#de9e35" d="M30.4 96.9h24.2v11.38H30.4z"/><path fill="#d3b840" d="M162.2 96.9h24.1v11.4h-24.1zm-48.8-48.4H150v11.38h-36.6z"/><path fill="#de9e35" d="M66.7 48.5h36.6v11.38H66.7z"/><path fill="#d3b840" d="M113.4 96.9H150v11.38h-36.6z"/><path fill="#de9e35" d="M66.7 96.9h36.6v11.38H66.7z"/></svg>