<svg xmlns="http://www.w3.org/2000/svg" width="77.4" height="62" viewBox="0 0 77.4 62"><path fill="#ead9ce" d="M67.4 23.2c6 11.4 4.1 23.6-2.5 30.2S41.3 62 38.8 62s-18.3-.8-26.1-8.6-8.5-19.2-2.2-30.7l-.4.5C7.3 19.4 0 24 0 24c2.1-17.6 16.3-9.1 16.3-9.1A32.7 32.7 0 0 1 38.8 5a32.9 32.9 0 0 1 22.5 9.8c1.4-.8 14.2-7.4 16.1 9.2 0 0-7.1-4.5-10-.8z"/><ellipse cx="38.8" cy="51.1" fill="#d8a9ce" rx="16.5" ry="11"/><circle cx="23.1" cy="33.9" r="2.9" fill="#231f20"/><ellipse cx="35.9" cy="51.1" fill="#231f20" rx="2" ry="2.9"/><ellipse cx="41.7" cy="51.1" fill="#231f20" rx="2" ry="2.9"/><circle cx="54.4" cy="33.9" r="2.9" fill="#231f20"/><path fill="#231f20" d="M22.5 13.7c1.7.4 5.9 1 8.4-2.5a1.1 1.1 0 0 0 0-1.1L23.5.4a.9.9 0 0 0-1.7.5v11.9a1 1 0 0 0 .7.9z"/><path fill="#93847c" d="M36.7 5.1s7.8 6.2 5.6 11-3.1 9.7 3.5 9.7 3.2-4.6 9.5-6.6c2.8-.8 6-4.4 6-4.4a30.6 30.6 0 0 0-24.6-9.7z"/><path fill="#231f20" d="M52.3 13.7c-1.7.4-5.9 1-8.4-2.5a.8.8 0 0 1 0-1.1L51.3.4a.9.9 0 0 1 1.6.5v11.9a.9.9 0 0 1-.6.9z"/><path fill="#93847c" d="M7.3 31s7.9-3.7 7.9 4.6-4.3 10.7 1.1 14.9 2.6 7.2 2.6 7.2S3.1 51.5 7.3 31z"/></svg>