<svg xmlns="http://www.w3.org/2000/svg" width="209.7" height="165" viewBox="0 0 209.7 165"><path fill="#eaeaea" d="M208.1 34.9c-8.6 16.2-19.8 20.8-28 20.8 15.9 30.1 10.9 62.5-6.6 80-20.4 20.5-62.4 22.7-69 22.7s-48.5-2.1-68.9-22.6c-17.7-17.7-22.7-50.8-6-81.3-8.2 0-19.4-4.5-28-20.7S18.1 4.2 31.1 20.5c10.6 13.4 14.4 12.6 15.4 11.9h.3C73.1 6.9 104.5 7.9 104.5 7.9s32.8-1.1 59.4 25.8v.2c1.8.2 6-1.4 14.6-12.2 13.1-16.4 37.7-2 29.6 13.2z"/><path fill="#d8a9ce" d="M148.1 134.8c0-16-19.5-29-43.5-29s-43.6 13-43.6 29a21.5 21.5 0 0 0 5.4 13.9 10 10 0 0 0 7.6 3.6h61.1a10.3 10.3 0 0 0 7.7-3.6 21.9 21.9 0 0 0 5.3-13.9z"/><path fill="#d8a9ce" d="M127.9 149.6H81.2c-2.8 0-5.1 2.8-5.1 6.2v5.3c0 5.4 56.9 5 56.9 0v-5.3c0-3.4-2.3-6.2-5.1-6.2z"/><circle cx="63" cy="84.2" r="7.7" fill="#231f20"/><ellipse cx="85.3" cy="133.2" fill="#231f20" rx="5.2" ry="7.7"/><ellipse cx="123.2" cy="133.2" fill="#231f20" rx="5.2" ry="7.7"/><circle cx="145.7" cy="84.2" r="7.7" fill="#231f20"/><path fill="#231f20" d="M98.9 8.1s20.6 16.3 14.8 29-8.2 25.7 9.3 25.7 8.4-12.3 25.1-17.5c7.4-2.2 15.8-11.6 15.8-11.6s-22.8-28.1-65-25.6zM21.3 76.5s20.9-9.8 20.9 12.1-11.5 28.3 2.8 39.5 6.9 18.9 6.9 18.9-41.7-16.3-30.6-70.5z"/><path fill="none" d="M28.6 56l1-1.4h.1z"/><path fill="#231f20" d="M57.4 24.7c-1.2-2.2-7.7-15.3.9-24.1A2 2 0 0 1 61.8 2c0 4.5 1.5 12.3 9.8 21.3a2 2 0 0 1-.6 3.1c-3 1.5-8.5 3.3-13.2-1.1zm92.5 0c1.2-2.2 7.7-15.3-1-24.1a2 2 0 0 0-3.4 1.4c0 4.5-1.6 12.3-9.8 21.3a2 2 0 0 0 .5 3.1c3.1 1.5 8.6 3.3 13.3-1.1z"/></svg>