<svg xmlns="http://www.w3.org/2000/svg" width="79.3" height="62.4" viewBox="0 0 79.3 62.4"><path fill="#eaeaea" d="M78.7 13.2c-3.2 6.1-7.5 7.9-10.6 7.9h.1c6 11.4 4.1 23.7-2.5 30.3S42 60 39.6 60s-18.4-.9-26.1-8.6-8.6-19.2-2.3-30.8c-3.1 0-7.4-1.7-10.6-7.8s6.2-11.2 11.2-5 5.4 4.7 5.8 4.5a.1.1 0 0 1 .1-.1A33 33 0 0 1 39.6 3 32.6 32.6 0 0 1 62 12.8h.1c.7.1 2.2-.5 5.5-4.6 4.9-6.2 14.2-.8 11.1 5z"/><path fill="#d8a9ce" d="M56.1 51c0-6.1-7.4-11-16.5-11s-16.5 4.9-16.5 11a8.3 8.3 0 0 0 2 5.3 3.9 3.9 0 0 0 2.9 1.3h23.1a3.8 3.8 0 0 0 2.9-1.3 8.5 8.5 0 0 0 2.1-5.3z"/><path fill="#d8a9ce" d="M48.4 56.6H30.7a2.2 2.2 0 0 0-1.9 2.4v2c0 2 21.5 1.8 21.5 0v-2a2.2 2.2 0 0 0-1.9-2.4z"/><circle cx="23.8" cy="31.8" r="2.9" fill="#231f20"/><ellipse cx="32.3" cy="50.4" fill="#231f20" rx="2" ry="2.9"/><ellipse cx="46.6" cy="50.4" fill="#231f20" rx="2" ry="2.9"/><circle cx="55.1" cy="31.8" r="2.9" fill="#231f20"/><path fill="#231f20" d="M37.4 3.1S45.2 9.2 43 14s-3.1 9.8 3.5 9.8 3.2-4.7 9.6-6.6c2.8-.9 5.9-4.4 5.9-4.4a30.2 30.2 0 0 0-24.6-9.7zM8.1 28.9s7.9-3.7 7.9 4.6-4.4 10.7 1 15 2.7 7.1 2.7 7.1S3.9 49.5 8.1 28.9z"/><path fill="none" d="M10.8 21.2l.4-.6-.4.6z"/><path fill="#231f20" d="M21.7 9.4c-.4-.9-2.9-5.9.4-9.2a.8.8 0 0 1 1.3.5c0 1.8.6 4.7 3.7 8.1a.8.8 0 0 1-.2 1.2 4.3 4.3 0 0 1-5-.4c-.1-.1-.1-.2-.2-.2zm35 0c.5-.9 2.9-5.9-.3-9.2-.5-.4-1.4-.1-1.3.5s-.6 4.7-3.8 8.1a.8.8 0 0 0 .3 1.2 4.3 4.3 0 0 0 5-.4z"/></svg>