<svg xmlns="http://www.w3.org/2000/svg" width="3in" height="3in" viewBox="0 0 216 216"><g id="customers"><path fill="#bfbdc1" d="M77.9 62.9v20a30.2 30.2 0 0 0 18.6 27.9h-2.1v13.5l-1.4.4a22.5 22.5 0 0 0-11.2-6.4l-15.9-3.8v-9.8h-1.5a21.5 21.5 0 0 0 13.4-20V70.3A21.6 21.6 0 0 0 40.9 55a21.2 21.2 0 0 0-6.4 15.3v14.4a21.2 21.2 0 0 0 6.4 15.3 20.1 20.1 0 0 0 7 4.7h-1.5v9.8l-15.8 3.8a23 23 0 0 0-17.7 22.4v11.6H48l1-.5a30.3 30.3 0 0 0-1.3 9.1v22.4H108V32.7a30.2 30.2 0 0 0-30.1 30.2zM76 68.2l.7 3.1h-6.8a50 50 0 0 0 6.1-3.1z"/><path fill="#6f6c77" d="M203.1 152.4v-11.7a23.1 23.1 0 0 0-17.7-22.4l-15.8-3.8v-9.7h-1.5a21.5 21.5 0 0 0 7.1-4.7 21.7 21.7 0 0 0 6.3-15.3V70.4a21.5 21.5 0 0 0-21.7-21.7 21.6 21.6 0 0 0-21.6 20.9v15.2a21.7 21.7 0 0 0 13.3 20h-1.4v9.7l-15.9 3.8a23.3 23.3 0 0 0-11.2 6.4h.1l-1.6-.4v-13.5h-1.9a30.2 30.2 0 0 0 18.6-26.7V62.9A30.2 30.2 0 0 0 108 32.7v150.6h60.3v-22.4a31.6 31.6 0 0 0-1.4-9.2l1.1.7zm-63.8-81.1l.7-3.1a50 50 0 0 0 6.1 3.1z"/><path fill="#fff" d="M186.9 112.3l-11.1-2.7v-2a27.8 27.8 0 0 0 11.9-22.8V70.4a27.9 27.9 0 0 0-46-21.2 36.4 36.4 0 0 0-67.4 0 27.9 27.9 0 0 0-46 21.2v14.4a27.8 27.8 0 0 0 11.9 22.8v2l-11.1 2.7a29.1 29.1 0 0 0-22.5 28.4v11.7a6.3 6.3 0 0 0 6.3 6.2h28.6c0 .8-.1 1.5-.1 2.3v22.4a6.3 6.3 0 0 0 6.3 6.2h120.6a6.2 6.2 0 0 0 6.2-6.2v-22.4a17.7 17.7 0 0 0-.1-2.3h28.7a6.3 6.3 0 0 0 6.3-6.2v-11.7a29.1 29.1 0 0 0-22.5-28.4zm-27.1-57.4a15.4 15.4 0 0 1 15.4 14.4h-8.6a44.5 44.5 0 0 1-20.9-5.1 15.4 15.4 0 0 1 14.1-9.3zm-15.4 29v-6.5a57.8 57.8 0 0 0 22.2 4.4h8.7v3a15.5 15.5 0 0 1-30.9 0zm-5.9 18.9a30.9 30.9 0 0 0 5.4 4.8v2l-11.1 2.6a43.6 43.6 0 0 0-5.1 1.7v-.4a35.6 35.6 0 0 0 10.8-10.7zM84.1 62.9a23.9 23.9 0 0 1 47.6-3.8l-10.5-6.2a6.3 6.3 0 0 0-8 1.4 26.8 26.8 0 0 1-20.6 9.6h-8.5zm0 13.5h8.5a39.1 39.1 0 0 0 26.5-10.3l12.9 7.6v10.2a24 24 0 0 1-47.9-1zm31.2 42.2v4.5l-7.3 16.6-7.3-16.7v-4.4a38.4 38.4 0 0 0 14.6 0zm-43.2-11a27.9 27.9 0 0 0 5.4-4.9 36.4 36.4 0 0 0 10.7 10.7v.5a42 42 0 0 0-5-1.7l-11.1-2.6zM56.2 54.9a15.4 15.4 0 0 1 14.1 9.3 44.5 44.5 0 0 1-20.9 5.1h-8.6a15.4 15.4 0 0 1 15.4-14.4zM40.7 81.8h8.7a57.8 57.8 0 0 0 22.2-4.4v7.4a15.5 15.5 0 0 1-30.9 0zm3.7 64.3H19.1v-5.4A16.7 16.7 0 0 1 32 124.4l15.9-3.8a6.3 6.3 0 0 0 4.8-6.1v-2.1a19.8 19.8 0 0 0 3.5.3 19.5 19.5 0 0 0 3.4-.3v2.1a6.1 6.1 0 0 0 2.9 5.2 4.7 4.7 0 0 0 2.2.9l9.3 2.2-3.2.8a38 38 0 0 0-26.4 22.5zm117.6 31h-12.3v-12.9a6.3 6.3 0 0 0-12.5 0v12.9H78.7v-12.9a6.3 6.3 0 0 0-12.5 0v12.9H53.9v-16.2a25.9 25.9 0 0 1 19.8-25.2l17.1-4.1 11.5 26.1a6.3 6.3 0 0 0 5.7 3.7 6.7 6.7 0 0 0 3.4-1 6.7 6.7 0 0 0 2.3-2.7l11.4-26 17.1 4a25.8 25.8 0 0 1 19.8 25.2zm34.9-31h-25.3a38.4 38.4 0 0 0-26.5-22.5l-3.2-.7 9.4-2.3a4.7 4.7 0 0 0 2.2-.9 6.1 6.1 0 0 0 2.9-5.2v-2.1a19.5 19.5 0 0 0 3.4.3 19.8 19.8 0 0 0 3.5-.3v2.1a6.3 6.3 0 0 0 4.8 6.1l15.9 3.8a16.7 16.7 0 0 1 12.9 16.3z"/></g></svg>