<svg xmlns="http://www.w3.org/2000/svg" width="4in" height="4in" viewBox="0 0 288 288"><path fill="#fff" d="M144 .9A143.1 143.1 0 1 0 287.1 144 143.1 143.1 0 0 0 144 .9zm-30 196H88.8v-75.8H114zm-12.6-86.1h-.2a13 13 0 0 1-13.9-12.1 3.4 3.4 0 0 1-.1-1 13.3 13.3 0 0 1 13.4-13.1h.9a13.1 13.1 0 0 1 14.1 12.1v.9a13 13 0 0 1-12.8 13.2zm103.4 86.1h-25.2v-40.5c0-10.2-3.6-17.1-12.7-17.1a13.9 13.9 0 0 0-13 9.1 18.6 18.6 0 0 0-.8 6.2v42.3h-25.2s.3-68.6 0-75.8H153v10.8a25 25 0 0 1 22.7-12.5c16.6 0 29.1 10.8 29.1 34.1z" style="isolation:isolate"/></svg>