<svg xmlns="http://www.w3.org/2000/svg" width="206.1" height="243" viewBox="0 0 206.1 243"><path fill="#b7b7b7" d="M201.7 63.7c7-35.1 6.9-57.7-8.9-62.9S158.3 15.2 152.6 42c-5.1 23.7-7.6 49.9-8.1 55.7-21.6-11-40.8-10.4-40.8-10.4s-20-.6-42 11c-.4-4.4-2.8-31.7-8.1-56.3C47.8 15.2 29.2-4.4 13.3.8S-2.6 28.6 4.4 63.7s32.9 50.6 34.4 51.5c-1.8 1.8-3.6 3.7-5.4 5.8-29.5 34.9-25.8 77.4-3.8 98.6S96.7 243 103.7 243s52.2-2.3 74.1-23.4 25.6-63.7-3.8-98.6c-2-2.3-3.9-4.4-5.9-6.3 4.3-2.9 27.3-19.4 33.6-51zM52.2 104l-4.4 3.3-.7.5S29.8 88.7 24.3 68.3s-8.8-39.4 0-42.1 22.6 35.3 25.3 50.3a158.7 158.7 0 0 1 2.7 27.4zm107.4 3.2l-.5.6-5.3-3.9v-.8a182.2 182.2 0 0 1 2.7-26.6c2.8-15 16.5-53.1 25.3-50.3s5.5 21.6 0 42.1c-4.9 18.4-19.4 35.7-22.2 38.9z"/><path fill="#b7b7b7" d="M159.6 107.2l-.5.6-5.3-3.9v-.8a68.7 68.7 0 0 1 5.8 4.1z"/><path fill="#dcdbdb" d="M177.8 219.5C154.5 242.8 105 243 103.7 243s-50.8-.2-74.1-23.5c0 0-14-64 28-72.9s28.9 61.8 46.1 61.8 4.2-70.6 46.2-61.8 27.9 72.9 27.9 72.9z"/><path fill="#231f20" d="M109.4 208c-2 2.6-4.1 4.3-5.9 4.3s-3.9-1.7-6-4.3 0-5.5 1.5-5.5h8.9c1.5 0 3.5 3 1.5 5.5z"/><circle cx="57.7" cy="174.9" r="9.7" fill="#231f20"/><circle cx="149.7" cy="174.9" r="9.7" fill="#231f20"/><path fill="#b7b7b7" d="M52.3 103.9h-.1l-4.4 3.3-.7.5s-17.3-19-22.8-39.4-8.8-39.4 0-42.1 22.6 35.3 25.3 50.3a158.7 158.7 0 0 1 2.7 27.4z"/><path fill="#dcdbdb" d="M52.3 103.9h-.1l-4.4 3.3-.7.5s-17.3-19-22.8-39.4-8.8-39.4 0-42.1 22.6 35.3 25.3 50.3a158.7 158.7 0 0 1 2.7 27.4z"/><path fill="#b7b7b7" d="M181.8 68.3c-4.9 18.4-19.4 35.7-22.2 38.9l-.5.6-5.3-3.9v-.8a182.2 182.2 0 0 1 2.7-26.6c2.8-15 16.5-53.1 25.3-50.3s5.5 21.6 0 42.1z"/><path fill="#dcdbdb" d="M181.8 68.3c-4.9 18.4-19.4 35.7-22.2 38.9l-.5.6-5.3-3.9v-.8a182.2 182.2 0 0 1 2.7-26.6c2.8-15 16.5-53.1 25.3-50.3s5.5 21.6 0 42.1z"/></svg>