<svg xmlns="http://www.w3.org/2000/svg" width="61.5" height="72.5" viewBox="0 0 61.5 72.5"><path fill="#b7b7b7" d="M60.2 19C62.3 8.5 62.3 1.8 57.5.3s-10.2 4.2-12 12.2a167.8 167.8 0 0 0-2.4 16.7A28.3 28.3 0 0 0 30.9 26a29 29 0 0 0-12.5 3.3A142.6 142.6 0 0 0 16 12.5C14.3 4.5 8.7-1.3 4 .3S-.8 8.5 1.3 19a24.7 24.7 0 0 0 10.3 15.4 12.9 12.9 0 0 0-1.6 1.7C1.2 46.5 2.3 59.2 8.8 65.5s20.1 7 22.1 7 15.6-.7 22.2-7 7.6-19-1.2-29.4l-1.7-1.9a24.2 24.2 0 0 0 10-15.2zM15.6 31l-1.3 1-.3.2s-5.1-5.7-6.7-11.8-2.7-11.8 0-12.6 6.7 10.6 7.5 15a52.2 52.2 0 0 1 .8 8.2zm32 1a.3.3 0 0 0-.1.2L45.9 31v-.2a48.9 48.9 0 0 1 .8-8c.8-4.4 4.9-15.8 7.6-15s1.6 6.5 0 12.6S48.5 31 47.6 32z"/><path fill="#b7b7b7" d="M47.6 32a.3.3 0 0 0-.1.2L45.9 31v-.2a6.6 6.6 0 0 1 1.7 1.2z"/><path fill="#dcdbdb" d="M53.1 65.5c-7 7-21.8 7-22.2 7s-15.1 0-22.1-7c0 0-4.2-19.1 8.4-21.7s8.6 18.4 13.7 18.4 1.3-21.1 13.8-18.4 8.4 21.7 8.4 21.7z"/><path fill="#231f20" d="M32.7 62.1c-.7.7-1.3 1.3-1.8 1.3s-1.2-.6-1.8-1.3a1 1 0 0 1 .5-1.7h2.6a1 1 0 0 1 .5 1.7z"/><circle cx="17.2" cy="52.2" r="2.9" fill="#231f20"/><circle cx="44.7" cy="52.2" r="2.9" fill="#231f20"/><path fill="#b7b7b7" d="M15.6 31l-1.3 1-.3.2s-5.1-5.7-6.7-11.8-2.7-11.8 0-12.6 6.7 10.6 7.5 15a52.2 52.2 0 0 1 .8 8.2z"/><path fill="#dcdbdb" d="M15.6 31l-1.3 1-.3.2s-5.1-5.7-6.7-11.8-2.7-11.8 0-12.6 6.7 10.6 7.5 15a52.2 52.2 0 0 1 .8 8.2z"/><path fill="#b7b7b7" d="M54.3 20.4C52.8 25.9 48.5 31 47.6 32a.3.3 0 0 0-.1.2L45.9 31v-.2a48.9 48.9 0 0 1 .8-8c.8-4.4 4.9-15.8 7.6-15s1.6 6.5 0 12.6z"/><path fill="#dcdbdb" d="M54.3 20.4C52.8 25.9 48.5 31 47.6 32a.3.3 0 0 0-.1.2L45.9 31v-.2a48.9 48.9 0 0 1 .8-8c.8-4.4 4.9-15.8 7.6-15s1.6 6.5 0 12.6z"/></svg>