<svg xmlns="http://www.w3.org/2000/svg" width="3in" height="3in" viewBox="0 0 216 216"><g id="support"><path fill="#bfbdc1" d="M113.7 44.9a35 35 0 0 0-34.6 34.6v6.1a5.6 5.6 0 0 0 5.7 5.7h57.8a5.6 5.6 0 0 0 5.7-5.7v-6.1a35 35 0 0 0-34.6-34.6z"/><path fill="#6f6c77" d="M148.3 79.5v6.1a5.6 5.6 0 0 1-5.7 5.7h-28.9V44.9a35 35 0 0 1 34.6 34.6z"/><path fill="#bfbdc1" d="M113.7 10.7c-12.5 0-23.2 10.2-23.2 22.8s10.7 22.8 23.2 22.8 23.2-10.3 23.2-22.8-10.6-22.8-23.2-22.8z"/><path fill="#6f6c77" d="M136.9 33.5c0 12.5-10.6 22.8-23.2 22.8V10.7c12.6 0 23.2 10.2 23.2 22.8z"/><path fill="#bfbdc1" stroke="#fff" stroke-linecap="round" stroke-linejoin="round" stroke-width="6" d="M203.1 120.9L170 168.8a34.3 34.3 0 0 1-27.4 13.7H44.9l-5.9-60 5.9-5.3c8.7-7.7 14.4-12.9 25.5-15.5 13.4-3.1 26.7.6 35.4 8.6 2.3 2 3.7 3.8 6.5 3.8h30.3a11.4 11.4 0 1 1 0 22.8h-23.2a5.7 5.7 0 1 0 0 11.4h27a14.3 14.3 0 0 0 8.4-3.6l30.8-38.4a11.5 11.5 0 0 1 15.1-1.5 11.6 11.6 0 0 1 2.4 16.1z"/><path fill="#6f6c77" d="M113.7 142.6v-28.5h28.9a11.4 11.4 0 1 1 0 22.8h-23.2a5.6 5.6 0 0 0-5.7 5.7z"/><path fill="#6f6c77" d="M203.1 120.9L170 168.8a34.3 34.3 0 0 1-27.4 13.7h-28.9v-39.9a5.6 5.6 0 0 0 5.7 5.7h27a14.3 14.3 0 0 0 8.4-3.6l30.8-38.4a11.5 11.5 0 0 1 15.1-1.5 11.6 11.6 0 0 1 2.4 16.1z"/><path fill="none" stroke="#fff" stroke-linecap="round" stroke-linejoin="round" stroke-width="6" d="M148.3 79.5v6.1a5.6 5.6 0 0 1-5.7 5.7H84.8a5.6 5.6 0 0 1-5.7-5.7v-6.1a34.8 34.8 0 0 1 18-30.2 22.5 22.5 0 0 1-6.6-15.8c0-12.6 10.7-22.8 23.2-22.8s23.2 10.2 23.2 22.8a22.5 22.5 0 0 1-6.6 15.8 34.6 34.6 0 0 1 18 30.2zm54.8 41.4L170 168.8a34.3 34.3 0 0 1-27.4 13.7H44.9l-5.9-60 5.9-5.3c8.7-7.7 14.4-12.9 25.6-15.6 13.3-3 26.6.7 35.3 8.7 2.3 2 3.7 3.8 6.5 3.8h30.3a11.4 11.4 0 1 1 0 22.8h-23.2a5.7 5.7 0 1 0 0 11.4h27a14.1 14.1 0 0 0 8.4-3.6l30.8-38.4a11.5 11.5 0 0 1 15.1-1.5 11.6 11.6 0 0 1 2.4 16.1z"/><path fill="#bfbdc1" stroke="#fff" stroke-linecap="round" stroke-linejoin="round" stroke-width="6" d="M45.5 202.2l-34.2-68.5a5.6 5.6 0 0 1 2.5-7.6l12.6-6.3a17.2 17.2 0 0 1 23 7.6l24 48.1a17.1 17.1 0 0 1-7.6 22.9l-12.7 6.3a5.6 5.6 0 0 1-7.6-2.5z"/></g></svg>