<svg xmlns="http://www.w3.org/2000/svg" width="3in" height="3in" viewBox="0 0 216 216"><path fill="#de9e35" d="M108 211.7a103.7 103.7 0 0 1 0-207.4"/><path fill="#d3b840" d="M108 4.3a103.7 103.7 0 0 1 0 207.4m0-112.3c-26.7 0-49.1 22.4-49.1 49.1v8.6a7.9 7.9 0 0 0 8.1 8.1h82a7.9 7.9 0 0 0 8.1-8.1v-8.6c0-26.7-22.4-49.1-49.1-49.1z"/><path fill="#de9e35" d="M157.1 148.5v8.6a7.9 7.9 0 0 1-8.1 8.1h-41V99.4c26.7 0 49.1 22.4 49.1 49.1z"/><path fill="#d3b840" d="M108 50.8c-17.8 0-32.9 14.5-32.9 32.4s15.1 32.4 32.9 32.4 32.9-14.6 32.9-32.4-15.1-32.4-32.9-32.4z"/><path fill="#de9e35" d="M140.9 83.2c0 17.8-15.1 32.4-32.9 32.4V50.8c17.8 0 32.9 14.5 32.9 32.4z"/><path fill="none" stroke="#fff" stroke-linecap="round" stroke-linejoin="round" stroke-width="15" d="M157.1 148.5v8.6a7.9 7.9 0 0 1-8.1 8.1H67a7.9 7.9 0 0 1-8.1-8.1v-8.6a49.5 49.5 0 0 1 25.5-42.9 31.9 31.9 0 0 1-9.3-22.4c0-17.9 15.1-32.4 32.9-32.4s32.9 14.5 32.9 32.4a31.9 31.9 0 0 1-9.3 22.4c15.1 8.5 25.5 24.7 25.5 42.9z"/></svg>