<svg xmlns="http://www.w3.org/2000/svg" width="372" height="215.6" viewBox="0 0 372 215.6"><path fill="#585858" d="M11.1 191.4H0v-21.2h10.8c4.3 0 7 1.8 7 5.5a4.7 4.7 0 0 1-3.6 4.8 5.2 5.2 0 0 1 4.1 5.1c0 3.7-2.6 5.8-7.2 5.8zm-1.9-15.9H6.7v3h2.5q1.8 0 1.8-1.5c0-1.1-.6-1.5-1.8-1.5zm.5 7.6h-3v3h3c1.2 0 1.8-.4 1.8-1.5s-.6-1.5-1.8-1.5zm24.4-7.6h-7.5v2.6h6.6v5h-6.6v3h7.5v5.3H19.9v-21.2h14.2zm16.1 12.7h-7.1l-1 3.2h-7l7.8-21.2h7.6l7.8 21.2h-7zm-3.5-10.9l-1.9 5.9h3.8zm23-7.1c5.3 0 8.1 3 8.1 6.9a6.4 6.4 0 0 1-4.6 6.2l4.6 8.1h-7.3l-4-7.6h-.1v7.6h-6.6v-21.2zm-.6 5.6h-2.7v3.6h2.7a1.7 1.7 0 0 0 1.9-1.8 1.7 1.7 0 0 0-1.9-1.8zm25.8-5.8c5.6 0 9.4 3.3 10.3 8.3h-7a3.7 3.7 0 0 0-3.4-2.2c-2.3 0-3.7 1.8-3.7 4.7s1.4 4.6 3.7 4.6a3.7 3.7 0 0 0 3.4-2.2h7c-.9 5-4.7 8.4-10.3 8.4s-10.5-4.5-10.5-10.8 4-10.8 10.5-10.8zm22 .2c5.3 0 8 3 8 6.9a6.3 6.3 0 0 1-4.5 6.2l4.6 8.1h-7.3l-4-7.6h-.1v7.6H107v-21.2zm-.6 5.6h-2.7v3.6h2.7a1.7 1.7 0 0 0 1.9-1.8 1.7 1.7 0 0 0-1.9-1.8zm24.3-.3h-7.5v2.6h6.6v5h-6.6v3h7.5v5.3h-14.1v-21.2h14.1zm16.7 0h-7.5v2.6h6.6v5h-6.6v3h7.5v5.3h-14.1v-21.2h14.1zm8.6 6.7v9.2h-6.7v-21.2h6.7v8.9l6.1-8.9h7.5l-7.3 10.1 7.8 11.1h-7.9zm29.4 9.4c-4.9 0-8.7-2.2-9-7h7.1c.1 1.6 1 1.8 1.6 1.8s1.3-.3 1.3-1c0-2.9-10-1.8-9.9-9.1 0-4.3 3.6-6.5 8.1-6.5s8.4 2.5 8.6 6.9H196c-.1-1.3-.8-1.7-1.5-1.7a1 1 0 0 0-1 1.1c0 2.7 9.9 2.2 9.9 8.7 0 3.9-3 6.8-8.1 6.8zm22.9-3.4h-7.1l-1.1 3.2h-7l7.8-21.2h7.7l7.7 21.2h-7zm-3.6-10.9l-1.9 5.9h3.8zm33.5-7.1v21.2h-6.7l-7-10.7v10.7h-6.7v-21.2h6.7l7 10.8v-10.8zm12.3-.2c5.6 0 9.4 3.3 10.3 8.3h-7a3.7 3.7 0 0 0-3.4-2.2c-2.3 0-3.7 1.8-3.7 4.7s1.4 4.6 3.7 4.6a3.7 3.7 0 0 0 3.4-2.2h7c-.9 5-4.7 8.4-10.3 8.4s-10.5-4.5-10.5-10.8 4-10.8 10.5-10.8zm10.9.2h17.9v5.3h-5.7v15.9h-6.6v-15.9h-5.6zm19.5 0h6.7v11.9c0 1.9.7 3.2 2.7 3.2s2.8-1.3 2.8-3.2v-11.9h6.7v11.9c0 6.3-4.3 9.5-9.6 9.5s-9.3-3.2-9.3-9.5zm33 18h-7.1l-1.1 3.2h-7l7.8-21.2h7.7l7.7 21.2h-7zm-3.6-10.9l-1.9 5.9h3.8zm23-7.1c5.4 0 8.1 3 8.1 6.9a6.4 6.4 0 0 1-4.6 6.2l4.6 8.1H344l-4-7.6v7.6h-6.7v-21.2zm-.6 5.6H340v3.6h2.6c1.3 0 1.9-.6 1.9-1.8a1.7 1.7 0 0 0-1.9-1.8zm7.5-5.6h7.6l3.4 7.5 3.4-7.5h7.5l-7.6 14.8v6.4h-6.7V185zM98.8 203.3h-5.4v4.1h4.8v1.9h-4.8v4.3h5.4v1.8h-7.7v-13.9h7.7zm7.8 7.1l-2.9 5h-2.6l4.4-6.9-4.4-7h2.6l3.1 5.1 3-5.1h2.5l-4.3 7 4.3 6.9h-2.5zm6.7-8.9h9.7v1.9h-3.7v12H117v-12h-3.7zm12 0h2.3v13.9h-2.3zm16.7 0v13.9h-2.3l-6.8-10.4v10.4h-2.3v-13.9h2.3l6.8 10.4v-10.4zm9.3-.2a6.8 6.8 0 0 1 6.5 4.2h-2.7a4 4 0 0 0-3.8-2.2c-2.7 0-4.7 2-4.7 5.1s2 5.2 4.7 5.2a4 4 0 0 0 3.8-2.2h2.7a6.7 6.7 0 0 1-6.5 4.1 7.1 7.1 0 0 1 0-14.2zm7.2.2h9.7v1.9h-3.7v12h-2.2v-12h-3.8zm17.2 0h2.3v13.9h-2.3zm9.9 14.1c-2.8 0-4.9-1.6-4.9-4h2.4a2.2 2.2 0 0 0 2.5 2c1.6 0 2.5-.8 2.5-2 0-3.4-7.4-1.2-7.4-6.3 0-2.5 2-4 4.8-4s4.5 1.4 4.7 3.8h-2.5a2.1 2.1 0 0 0-2.3-1.8 2 2 0 0 0-2.4 1.9c0 3.1 7.4 1.2 7.4 6.3 0 2.1-1.7 4.1-4.8 4.1zm12.7-14.1h8.2v1.9h-5.9v4.1h4.6v1.8h-4.6v6.1h-2.3zm15.4 14.1a7.2 7.2 0 0 1 0-14.3 7.2 7.2 0 0 1 0 14.3zm0-2c2.8 0 4.8-2 4.8-5.2s-2-5.1-4.8-5.1-4.7 2-4.7 5.1 2 5.2 4.7 5.2zm14.2-12.1c3.3 0 4.9 1.9 4.9 4.2a3.9 3.9 0 0 1-3.2 3.9l3.4 5.8h-2.7l-3.2-5.6h-1.7v5.6h-2.3v-13.9zm0 1.9h-2.5v4.6h2.5c1.8 0 2.6-1 2.6-2.3s-.8-2.3-2.6-2.3zm15.1-.1h-5.4v4.1h4.8v1.9h-4.8v4.3h5.4v1.8h-7.7v-13.9h7.7zm12.4-1.8h2.4l-5.2 13.9h-2.7l-5.2-13.9h2.4l4.1 11.6zm12 1.8H262v4.1h4.8v1.9H262v4.3h5.4v1.8h-7.7v-13.9h7.7zm7.2-1.8c3.3 0 4.9 1.9 4.9 4.2a3.9 3.9 0 0 1-3.2 3.9l3.4 5.8H277l-3.2-5.6H272v5.6h-2.2v-13.9zm0 1.9H272v4.6h2.6a2.2 2.2 0 0 0 2.5-2.3c0-1.4-.8-2.3-2.5-2.3zm2.5-56.7a33 33 0 0 1-2.3 2.8h-23.9s7.8-8.2 6.3-12.2c0 0-9.1.6-15.4-10.5 0 0 .1 14.8-3.9 14.8h-39.7s1.5-12.4 10.8-12.4c0 0-15.3-4.5-14-25.6 0 0-10.9 1.5-17-8.2 0 0-21.2 37.9-16.1 54.1h-46.1s-4-9.5 12.2-16.7-11.1-55.1-20.6-60.5c-6-3.3-24.6-9.8-37.3-10.9l-26.3-3.5C33.9 56.5 27 45.7 31.2 41.5S47.8 38.1 50 28.7s16.7-9.5 16.7-9.5 2.4-9.8 5.7-13.1 8.8 6.9 8.8 6.9 26.1 3.2 39.1-4.3 28.8-14.5 51.9-1.2 47.2-12.7 71.4 1.3 39.7 36.2 27.7 78.7a19.8 19.8 0 0 0-.9 3l-.6 1.9s-3 14.7 3.7 22.7c1 1.6 2.6 2.9 3.7 4.7 6.3 10.3 3.7 21.7-.1 26.9z"/><path d="M270.4 90.6a19.8 19.8 0 0 1 .9-3zm4.4 58.9a33 33 0 0 0 2.3-2.8 7.2 7.2 0 0 1-2.3 2.8z"/></svg>